<svg width="149" height="145" viewBox="0 0 149 145" fill="none" xmlns="http://www.w3.org/2000/svg">
<path fill-rule="evenodd" clip-rule="evenodd" d="M74.0697 0C33.1675 0 0 33.1601 0 74.0697C0 106.797 21.2232 134.56 50.6534 144.355C54.3539 145.042 55.7129 142.749 55.7129 140.792C55.7129 139.026 55.6442 133.191 55.6123 127.002C35.0061 131.483 30.6579 118.263 30.6579 118.263C27.2886 109.701 22.4338 107.425 22.4338 107.425C15.7123 102.828 22.9404 102.923 22.9404 102.923C30.377 103.445 34.2947 110.556 34.2947 110.556C40.901 121.877 51.6223 118.605 55.8491 116.714C56.5139 111.926 58.4334 108.657 60.5517 106.808C44.0998 104.937 26.8041 98.585 26.8041 70.2035C26.8041 62.1168 29.6988 55.5093 34.437 50.321C33.6667 48.4566 31.1314 40.923 35.1533 30.7205C35.1533 30.7205 41.372 28.7298 55.5265 38.3129C61.4361 36.6705 67.7737 35.8451 74.0697 35.8169C80.3619 35.8451 86.7032 36.6681 92.6239 38.3105C106.761 28.7273 112.973 30.718 112.973 30.718C117.004 40.9194 114.469 48.4541 113.7 50.3185C118.449 55.5069 121.323 62.1144 121.323 70.2011C121.323 98.65 103.995 104.913 87.5017 106.748C90.1597 109.046 92.527 113.555 92.527 120.464C92.527 130.375 92.4411 138.351 92.4411 140.791C92.4411 142.762 93.7756 145.072 97.5289 144.344C126.942 134.539 148.141 106.785 148.141 74.0697C148.139 33.1626 114.976 0 74.0697 0Z" fill="white"/>
<path d="M28.0539 106.347C27.8907 106.715 27.3118 106.825 26.7844 106.574C26.2447 106.333 25.9442 105.831 26.1183 105.462C26.2778 105.082 26.858 104.978 27.394 105.232C27.9337 105.473 28.2403 105.98 28.0526 106.348L28.0539 106.347ZM31.054 109.694C30.702 110.021 30.0115 109.869 29.5429 109.35C29.0572 108.835 28.9664 108.145 29.3258 107.812C29.6913 107.486 30.361 107.641 30.8467 108.156C31.33 108.678 31.4257 109.363 31.0553 109.695L31.054 109.694ZM33.9757 113.959C33.5219 114.275 32.7786 113.98 32.3198 113.321C31.866 112.661 31.866 111.87 32.3321 111.555C32.7896 111.238 33.5219 111.524 33.988 112.176C34.4393 112.845 34.4393 113.637 33.9757 113.959ZM37.9755 118.081C37.5708 118.529 36.7048 118.409 36.0719 117.799C35.4255 117.202 35.2452 116.352 35.6512 115.905C36.0633 115.456 36.9329 115.581 37.5695 116.187C38.2159 116.783 38.411 117.635 37.978 118.08L37.9755 118.081ZM43.4951 120.474C43.3148 121.054 42.4831 121.318 41.6429 121.07C40.8052 120.816 40.2569 120.138 40.4286 119.552C40.6004 118.967 41.4381 118.693 42.2832 118.957C43.121 119.21 43.6692 119.884 43.4951 120.474ZM49.5579 120.917C49.5788 121.528 48.8674 122.033 47.988 122.045C47.1011 122.066 46.3836 121.571 46.375 120.97C46.375 120.353 47.0717 119.854 47.9573 119.836C48.8367 119.82 49.5592 120.311 49.5592 120.916L49.5579 120.917ZM55.1977 119.958C55.3032 120.553 54.6911 121.165 53.8166 121.328C52.958 121.487 52.1607 121.117 52.0503 120.527C51.9448 119.916 52.5679 119.304 53.4265 119.146C54.3023 118.995 55.0873 119.353 55.1977 119.958Z" fill="white"/>
</svg>
