<svg width="256" height="256" viewBox="0 0 256 256" fill="none" xmlns="http://www.w3.org/2000/svg">
<g clip-path="url(#clip0_2005_350)">
<path d="M128 256C198.692 256 256 198.692 256 128C256 57.3075 198.692 0 128 0C57.3075 0 0 57.3075 0 128C0 198.692 57.3075 256 128 256Z" fill="black"/>
<path d="M212.634 224.028L98.3338 76.8H76.7998V179.158H94.0278V98.678L199.108 234.446C203.843 231.278 208.362 227.798 212.634 224.028Z" fill="url(#paint0_linear_2005_350)"/>
<path d="M163.556 76.8H180.622V179.2H163.556V76.8Z" fill="url(#paint1_linear_2005_350)"/>
</g>
<defs>
<linearGradient id="paint0_linear_2005_350" x1="155.022" y1="165.689" x2="205.511" y2="228.266" gradientUnits="userSpaceOnUse">
<stop stop-color="white"/>
<stop offset="1" stop-color="white" stop-opacity="0"/>
</linearGradient>
<linearGradient id="paint1_linear_2005_350" x1="172.089" y1="76.7999" x2="171.803" y2="152" gradientUnits="userSpaceOnUse">
<stop stop-color="white"/>
<stop offset="1" stop-color="white" stop-opacity="0"/>
</linearGradient>
<clipPath id="clip0_2005_350">
<rect width="256" height="256" fill="white"/>
</clipPath>
</defs>
</svg>
