<svg width="256" height="256" viewBox="0 0 256 256" fill="none" xmlns="http://www.w3.org/2000/svg">
<path d="M187.618 184.224C189.188 171.158 188.718 169.24 198.45 171.358L200.92 171.574C208.404 171.914 218.194 170.37 223.946 167.698C236.328 161.952 243.668 152.362 231.462 154.88C203.614 160.626 201.7 151.196 201.7 151.196C231.106 107.566 243.398 52.18 232.786 38.622C203.846 1.64395 153.752 19.13 152.914 19.582L152.646 19.632C147.144 18.49 140.986 17.8079 134.068 17.6959C121.466 17.4879 111.904 21 104.65 26.5C104.65 26.5 15.284 -10.3181 19.442 72.802C20.326 90.484 44.786 206.598 73.962 171.526C84.626 158.702 94.93 147.858 94.93 147.858C100.046 151.256 106.174 152.992 112.598 152.368L113.096 151.944C112.94 153.536 113.008 155.094 113.294 156.938C105.78 165.336 107.988 166.81 92.962 169.902C77.758 173.034 86.69 178.612 92.52 180.07C99.59 181.838 115.944 184.342 126.996 168.874L126.556 170.638C129.504 172.998 129.306 187.592 129.722 198.018C130.14 208.446 130.838 218.176 132.964 223.914C135.09 229.652 137.598 244.426 157.346 240.194C173.85 236.666 186.468 231.576 187.618 184.224Z" fill="black"/>
<path d="M150.916 250.512C142.182 250.512 136.494 247.134 133.04 243.872C127.826 238.952 125.758 232.614 124.522 228.828L123.988 227.248C121.5 220.532 120.656 210.862 120.156 198.41C120.08 196.54 120.028 194.614 119.97 192.572C119.928 191.078 119.876 189.204 119.8 187.244C116.653 188.744 113.313 189.8 109.876 190.38C103.718 191.432 97.098 191.092 90.196 189.366C85.326 188.148 80.266 185.624 77.382 181.726C68.976 189.088 60.958 188.09 56.59 186.632C48.884 184.062 41.988 176.84 35.506 164.558C30.888 155.808 26.422 144.408 22.23 130.672C14.93 106.752 10.292 81.558 9.88003 73.286C8.58403 47.396 15.554 28.88 30.592 18.258C54.314 1.50199 90.256 11.356 103.36 15.83C112.164 10.524 122.522 7.94199 134.226 8.12799C140.512 8.22999 146.498 8.78199 152.058 9.77399C157.858 7.94999 169.314 5.33199 182.428 5.49599C206.59 5.78399 226.612 15.2 240.326 32.726C250.114 45.23 245.274 71.488 241.52 86.028C236.236 106.48 226.978 128.232 215.606 147.168C218.694 147.19 223.168 146.82 229.528 145.506C242.076 142.916 245.746 149.644 246.742 152.656C250.732 164.74 233.388 173.872 227.978 176.384C221.046 179.602 209.744 181.562 200.488 181.138L200.084 181.112L197.652 180.898L197.412 182.926L197.18 184.908C196.558 208.906 193.13 224.104 186.076 234.146C178.682 244.674 168.406 247.624 159.354 249.564C156.266 250.224 153.46 250.512 150.916 250.512ZM132.536 163.17C138.174 167.682 138.668 176.172 139.11 192.038C139.166 194.018 139.218 195.892 139.288 197.642C139.5 202.942 139.998 215.352 141.942 220.596C142.216 221.338 142.462 222.09 142.722 222.888C144.888 229.52 145.974 232.846 155.34 230.844C163.202 229.158 167.244 227.646 170.408 223.142C175.006 216.594 177.578 203.422 178.05 183.992L187.616 184.224L178.116 183.084L178.396 180.712C179.306 172.892 179.962 167.244 185.188 163.508C189.382 160.512 194.16 160.802 197.966 161.488C193.784 158.328 192.628 154.622 192.32 153.102L191.522 149.172L193.764 145.846C206.678 126.686 217.326 103.138 222.982 81.238C228.794 58.736 227.022 46.786 225.25 44.526C201.792 14.552 161.114 26.928 156.866 28.332L156.148 28.72L152.548 29.39L150.704 29.008C145.62 27.952 139.972 27.368 133.918 27.27C124.406 27.11 116.732 29.358 110.44 34.132L106.074 37.442L101.008 35.356C90.184 30.93 58.392 22.032 41.616 33.914C32.304 40.51 28.062 53.434 29.006 72.328C29.318 78.566 33.556 102.18 40.548 125.082C50.21 156.732 58.99 167.246 62.656 168.468C63.296 168.684 64.956 167.394 66.608 165.41C73.4963 157.153 80.6288 149.103 87.996 141.27L93.536 135.44L100.234 139.89C102.934 141.684 105.912 142.702 108.97 142.894L124.944 129.27L122.63 152.886C122.578 153.416 122.552 154.138 122.76 155.478L123.456 159.954L120.436 163.33L120.088 163.722L128.864 167.772L132.536 163.17Z" fill="black"/>
<path d="M231.462 154.88C203.612 160.626 201.698 151.196 201.698 151.196C231.104 107.564 243.396 52.176 232.788 38.622C203.848 1.64599 153.75 19.132 152.914 19.586L152.644 19.634C147.142 18.492 140.984 17.812 134.062 17.7C121.46 17.494 111.902 21.004 104.648 26.504C104.648 26.504 15.28 -10.312 19.436 72.806C20.32 90.49 44.78 206.604 73.956 171.532C84.62 158.708 94.922 147.864 94.922 147.864C100.04 151.262 106.166 152.998 112.588 152.374L113.088 151.95C112.932 153.542 113.004 155.1 113.288 156.944C105.772 165.342 107.98 166.816 92.954 169.908C77.75 173.04 86.682 178.618 92.514 180.076C99.582 181.844 115.938 184.348 126.988 168.88L126.546 170.644C129.492 173.004 131.56 185.988 131.214 197.758C130.868 209.528 130.634 217.61 132.956 223.922C135.276 230.234 137.588 244.434 157.34 240.202C173.844 236.666 182.396 227.5 183.588 212.212C184.432 201.342 186.342 202.95 186.464 193.232L187.998 188.632C189.766 173.898 188.278 169.146 198.448 171.356L200.918 171.572C208.402 171.912 218.196 170.368 223.946 167.696C236.326 161.954 243.668 152.362 231.462 154.88Z" fill="#336791"/>
<path d="M151.914 244.614C135.45 244.614 130.234 231.576 128.1 226.244C124.976 218.43 124.302 188.106 124.998 163.238C125.008 162.819 125.101 162.405 125.272 162.022C125.443 161.639 125.688 161.293 125.993 161.005C126.298 160.717 126.656 160.492 127.049 160.343C127.441 160.194 127.859 160.125 128.278 160.138C128.697 160.149 129.109 160.243 129.492 160.414C129.874 160.585 130.22 160.83 130.507 161.134C130.795 161.439 131.02 161.797 131.17 162.188C131.319 162.58 131.39 162.997 131.378 163.416C130.576 192.098 131.714 218.09 134.026 223.874C137.634 232.892 143.106 240.78 158.576 237.466C173.262 234.316 178.762 228.748 181.212 214.546C183.092 203.648 186.81 172.644 187.268 166.526C187.299 166.108 187.411 165.7 187.6 165.326C187.789 164.951 188.049 164.618 188.367 164.344C188.685 164.071 189.053 163.863 189.451 163.732C189.85 163.601 190.27 163.55 190.688 163.582C191.532 163.646 192.315 164.042 192.867 164.683C193.419 165.324 193.694 166.158 193.632 167.002C193.154 173.372 189.454 204.316 187.502 215.632C184.61 232.406 177.132 240.014 159.914 243.706C156.988 244.332 154.33 244.612 151.914 244.614ZM62.6419 180.932C61.2028 180.927 59.7738 180.691 58.4099 180.232C47.7159 176.664 37.5299 159.248 28.1339 128.462C20.9819 105.028 16.4499 80.5679 16.0519 72.6179C14.8739 49.0499 20.9419 32.3759 34.0919 23.0619C60.1059 4.62995 103.868 22.1819 105.718 22.9379C106.502 23.2581 107.126 23.8764 107.454 24.6569C107.782 25.4375 107.786 26.3162 107.466 27.0999C107.146 27.8837 106.527 28.5081 105.747 28.8359C104.966 29.1637 104.088 29.1681 103.304 28.8479C102.882 28.6759 60.9179 11.8639 37.7679 28.2779C26.5239 36.2499 21.3619 51.062 22.4239 72.3C22.7579 78.998 26.9919 102.87 34.2359 126.598C42.6239 154.082 52.1699 171.424 60.4279 174.178C61.7239 174.61 65.6679 175.924 71.3059 169.144C77.8805 161.247 84.7019 153.56 91.7599 146.092C92.3505 145.503 93.1481 145.168 93.9822 145.16C94.8163 145.152 95.6205 145.47 96.2227 146.047C96.8249 146.624 97.1773 147.414 97.2044 148.248C97.2316 149.082 96.9313 149.893 96.3679 150.508C96.2719 150.608 86.6739 160.642 76.2139 173.226C71.2599 179.184 66.5119 180.932 62.6419 180.932ZM201.5 154.042C200.921 154.041 200.354 153.883 199.858 153.585C199.362 153.287 198.957 152.859 198.686 152.348C198.414 151.837 198.286 151.262 198.316 150.684C198.346 150.107 198.533 149.548 198.856 149.068C228.582 104.958 239.016 51.66 230.08 40.24C218.832 25.868 202.95 18.3619 182.872 17.9279C168.006 17.6079 156.19 21.4039 154.258 22.0659L153.772 22.2639C151.83 22.8739 150.34 21.8099 149.778 20.5659C149.457 19.8532 149.409 19.0479 149.641 18.3018C149.874 17.5557 150.371 16.9205 151.04 16.5159C151.132 16.4619 151.424 16.3379 151.898 16.1639C155.18 14.9619 167.176 11.3619 182.034 11.5319C204.25 11.7679 222.602 20.3339 235.102 36.3079C241.016 43.8659 241.03 61.2779 235.14 84.0819C229.136 107.332 217.838 132.318 204.146 152.636C203.534 153.55 202.526 154.042 201.5 154.042ZM203.02 174.462C197.944 174.462 193.394 173.746 190.67 172.114C187.87 170.436 187.336 168.156 187.266 166.946C186.502 153.526 193.906 151.19 197.682 150.124C197.156 149.328 196.408 148.392 195.634 147.426C193.432 144.674 190.416 140.906 188.092 135.27C187.728 134.39 186.588 132.344 185.268 129.974C178.11 117.138 163.216 90.4279 172.784 76.7499C177.212 70.4199 186.03 67.928 199.022 69.318C195.2 57.674 177 21.2499 133.814 20.5419C120.826 20.3259 110.174 24.3199 102.17 32.4019C84.2499 50.4999 84.8979 83.2459 84.9079 83.5739C84.919 83.9929 84.8474 84.4099 84.6972 84.8011C84.5471 85.1924 84.3214 85.5502 84.033 85.8542C83.7446 86.1582 83.3991 86.4025 83.0163 86.573C82.6335 86.7435 82.2208 86.8369 81.8019 86.8479C81.383 86.859 80.966 86.7874 80.5748 86.6373C80.1835 86.4871 79.8257 86.2614 79.5217 85.973C79.2176 85.6846 78.9734 85.3391 78.8029 84.9563C78.6324 84.5735 78.539 84.1609 78.5279 83.7419C78.4879 82.2879 77.8199 47.9239 97.6359 27.9099C106.91 18.5439 119.118 13.9199 133.92 14.1619C161.548 14.6159 179.332 28.6619 189.384 40.3639C200.342 53.1179 205.714 67.186 206.156 71.882C206.486 75.374 203.98 76.0719 203.474 76.1759L202.322 76.202C189.572 74.16 181.392 75.578 178.01 80.41C170.732 90.812 184.822 116.078 190.838 126.868C192.374 129.62 193.482 131.61 193.99 132.838C195.966 137.63 198.544 140.85 200.614 143.438C202.436 145.714 204.014 147.688 204.578 150.004C204.84 150.464 208.558 155.964 230.62 151.41C236.15 150.27 239.466 151.244 240.48 154.31C242.474 160.34 231.286 167.374 225.092 170.25C219.542 172.83 210.684 174.462 203.02 174.462ZM193.628 166.42C194.328 167.126 197.83 168.344 205.082 168.032C211.53 167.756 218.33 166.354 222.41 164.46C227.628 162.036 231.112 159.326 232.916 157.476L231.916 157.66C217.81 160.572 207.832 160.184 202.26 156.506C201.885 156.259 201.525 155.991 201.18 155.704C200.576 155.942 200.018 156.098 199.62 156.21C196.46 157.096 193.192 158.014 193.628 166.42ZM102.504 184.25C98.9999 184.25 95.3119 183.772 91.5459 182.83C87.6439 181.854 81.0659 178.916 81.1659 174.09C81.2799 168.676 89.1539 167.052 92.1179 166.442C102.826 164.236 103.524 163.352 106.87 159.102C107.846 157.864 109.06 156.322 110.716 154.474C113.174 151.722 115.86 150.328 118.7 150.328C120.678 150.328 122.3 150.998 123.372 151.444C126.788 152.86 129.638 156.284 130.81 160.378C131.868 164.072 131.362 167.628 129.39 170.39C122.916 179.456 113.618 184.25 102.504 184.25ZM88.0599 174.364C89.0219 175.108 90.9499 176.102 93.0959 176.638C96.3579 177.454 99.5219 177.868 102.506 177.868C111.598 177.868 118.898 174.104 124.2 166.68C125.306 165.132 124.974 163.166 124.678 162.132C124.058 159.966 122.518 157.996 120.932 157.338C120.072 156.982 119.358 156.71 118.702 156.71C118.35 156.71 117.278 156.71 115.474 158.728C114.229 160.128 113.032 161.57 111.886 163.052C107.718 168.344 105.808 170.14 93.4079 172.694C90.3819 173.314 88.8299 173.946 88.0599 174.364ZM112.598 159.644C111.836 159.643 111.1 159.369 110.522 158.872C109.944 158.376 109.563 157.689 109.448 156.936C109.368 156.406 109.314 155.873 109.288 155.338C101.16 155.186 93.3179 151.698 87.3639 145.486C79.8359 137.632 76.4099 126.75 77.9659 115.632C79.6559 103.558 79.0239 92.9 78.6839 87.174C78.5899 85.582 78.5219 84.4319 78.5259 83.6359C78.5319 82.6259 78.5519 79.948 87.5039 75.41C90.6879 73.796 97.0719 70.98 104.046 70.258C115.6 69.064 123.216 74.2099 125.496 84.7499C131.65 113.206 125.984 125.792 121.846 134.984C121.076 136.696 120.348 138.312 119.766 139.878L119.252 141.258C117.066 147.12 115.176 152.184 115.756 155.966C115.82 156.38 115.801 156.803 115.701 157.21C115.602 157.617 115.423 158 115.175 158.338C114.927 158.676 114.615 158.962 114.256 159.179C113.898 159.396 113.5 159.541 113.086 159.604L112.598 159.644ZM84.9279 84.5199L85.0519 86.7979C85.4039 92.7459 86.0599 103.814 84.2839 116.518C83.0019 125.688 85.8019 134.638 91.9699 141.07C96.8439 146.154 103.258 148.96 109.85 148.96H109.986C110.724 145.85 111.95 142.566 113.27 139.028L113.78 137.656C114.438 135.888 115.208 134.176 116.024 132.364C120.006 123.516 124.964 112.502 119.254 86.0999C118.124 80.8699 115.382 77.8439 110.876 76.8459C101.62 74.8019 87.8259 81.7639 84.9279 84.5199ZM104.188 83.1659C104.028 84.2939 106.254 87.3059 109.158 87.7079C112.056 88.1139 114.536 85.7579 114.694 84.6299C114.852 83.5019 112.628 82.2579 109.724 81.8539C106.82 81.4499 104.342 82.0379 104.188 83.1659ZM109.824 88.8179L109.01 88.7619C107.21 88.5119 105.39 87.3779 104.144 85.7259C103.706 85.1459 102.992 84.0219 103.134 83.0179C103.336 81.5459 105.132 80.6639 107.934 80.6639C108.56 80.6639 109.212 80.7099 109.868 80.8019C111.4 81.0139 112.822 81.4559 113.872 82.0419C115.692 83.0579 115.826 84.1919 115.744 84.7779C115.52 86.4039 112.934 88.8179 109.824 88.8179ZM105.246 83.3539C105.336 84.0499 107.06 86.3459 109.304 86.6559L109.826 86.6919C111.898 86.6919 113.446 85.0619 113.628 84.5279C113.436 84.1639 112.104 83.2599 109.578 82.9079C109.034 82.8311 108.485 82.7916 107.936 82.7899C106.312 82.7899 105.45 83.1559 105.246 83.3539ZM192.456 80.8639C192.614 81.9919 190.39 85.0039 187.488 85.4079C184.588 85.8119 182.106 83.4579 181.946 82.3299C181.794 81.2019 184.018 79.9559 186.918 79.5539C189.818 79.1479 192.296 79.7379 192.456 80.8639ZM186.818 85.9839C184.026 85.9839 181.616 83.8119 181.418 82.4019C181.188 80.7099 183.974 79.4239 186.842 79.0259C187.474 78.9379 188.1 78.8939 188.702 78.8939C191.178 78.8939 192.818 79.6199 192.982 80.7919C193.088 81.5499 192.506 82.7199 191.504 83.7759C190.842 84.4699 189.452 85.6719 187.558 85.9339L186.818 85.9839ZM188.704 79.9579C188.149 79.9579 187.579 79.9986 186.992 80.0799C184.11 80.4819 182.39 81.6379 182.474 82.2579C182.57 82.9399 184.41 84.9219 186.82 84.9219L187.414 84.8799C188.988 84.6619 190.17 83.6339 190.734 83.0419C191.62 82.1119 191.972 81.236 191.93 80.938C191.874 80.542 190.81 79.9579 188.704 79.9579ZM196.634 145.644C196.056 145.644 195.488 145.487 194.993 145.19C194.497 144.893 194.091 144.466 193.819 143.956C193.547 143.446 193.419 142.871 193.448 142.294C193.478 141.716 193.663 141.158 193.986 140.678C200.782 130.528 199.538 120.178 198.336 110.168C197.822 105.904 197.294 101.494 197.43 97.2619C197.57 92.9079 198.124 89.3159 198.658 85.8419C199.292 81.7259 199.892 77.838 199.644 73.222C199.621 72.8036 199.681 72.3848 199.821 71.9896C199.96 71.5944 200.176 71.2305 200.455 70.9187C200.735 70.6069 201.074 70.3533 201.452 70.1723C201.83 69.9913 202.24 69.8865 202.658 69.8639C203.076 69.8414 203.495 69.9014 203.89 70.0406C204.285 70.1799 204.649 70.3956 204.961 70.6755C205.591 71.2407 205.97 72.033 206.016 72.8779C206.3 78.1539 205.622 82.5539 204.966 86.8119C204.46 90.0979 203.936 93.4959 203.81 97.466C203.688 101.214 204.166 105.194 204.672 109.406C205.952 120.05 207.402 132.114 199.29 144.228C198.997 144.664 198.602 145.021 198.139 145.268C197.676 145.515 197.159 145.644 196.634 145.644Z" fill="white"/>
</svg>
