<svg width="256" height="256" viewBox="0 0 256 256" fill="none" xmlns="http://www.w3.org/2000/svg">
<path d="M198.08 100.63C190.788 98.334 187.024 99.108 179.378 98.27C167.558 96.98 162.848 92.352 160.85 80.444C159.732 73.796 161.052 64.062 158.198 58.036C152.74 46.544 139.968 41.39 127.138 44.332C116.304 46.82 107.29 57.664 106.79 68.796C106.22 81.506 113.45 92.352 125.864 96.096C131.764 97.876 138.03 98.772 144.19 99.226C155.488 100.052 156.356 106.342 159.41 111.52C161.338 114.784 163.204 118 163.204 127.734C163.204 137.468 161.326 140.682 159.412 143.946C156.356 149.112 152.586 152.496 141.288 153.332C135.128 153.788 128.848 154.684 122.964 156.466C110.548 160.22 103.318 171.052 103.888 183.764C104.388 194.896 113.402 205.74 124.236 208.228C137.066 211.18 149.838 206.016 155.296 194.524C158.162 188.498 159.732 181.67 160.85 175.024C162.86 163.114 167.57 158.486 179.378 157.194C187.024 156.358 194.938 157.194 202.104 153.118C209.674 147.578 216.44 139.258 216.44 127.734C216.44 116.206 209.15 104.122 198.08 100.63Z" fill="#F44250"/>
<path d="M76.8001 154.746C61.9001 154.746 49.7441 142.55 49.7441 127.596C49.7441 112.644 61.8981 100.448 76.7981 100.448C91.6981 100.448 103.854 112.644 103.854 127.596C103.854 142.536 91.6881 154.746 76.7981 154.746H76.8001ZM26.9601 209.92C12.0801 209.884 -0.03592 197.64 8.00174e-05 182.674C0.03608 167.734 12.2381 155.574 27.1501 155.622C42.0381 155.658 54.1561 167.902 54.1101 182.866C54.0741 197.794 41.8701 209.956 26.9601 209.92ZM227.984 209.92C213.06 210.002 200.812 197.89 200.726 182.974C200.644 167.998 212.714 155.706 227.578 155.622C242.502 155.538 254.752 167.65 254.836 182.566C254.918 197.53 242.848 209.836 227.984 209.92Z" fill="#121212"/>
</svg>
