<svg width="256" height="256" viewBox="0 0 256 256" fill="none" xmlns="http://www.w3.org/2000/svg">
<path fill-rule="evenodd" clip-rule="evenodd" d="M2.43799 112.312C2.43799 113.718 2.85199 114.646 3.08399 115.548C4.59599 121.414 7.84599 126.448 11.702 131.04C17.194 137.584 23.92 142.852 30.81 147.806C36.786 152.102 42.884 156.302 48.884 160.566C49.914 161.298 50.888 162.14 52.006 163.038C51.044 163.558 50.244 164.016 49.412 164.438C41.494 168.454 33.876 172.956 26.854 178.41C22.622 181.698 18.53 185.192 15.64 189.758C10.99 197.102 9.34399 204.926 12.81 213.28C13.822 215.72 15.366 217.828 17.544 219.386C18.25 219.89 19.042 220.39 19.868 220.586C21.984 221.084 24.14 221.41 26.282 221.804L32.348 221.8C39.056 221.202 45.162 218.904 50.68 215.096C59.304 209.144 65.114 201.164 67.612 190.922C69.428 183.478 69.502 176.026 67.362 168.616C67.1572 167.93 66.9209 167.253 66.654 166.588C66.394 165.922 66.088 165.274 65.728 164.444L79.48 156.536L79.686 156.712C79.436 157.53 79.17 158.346 78.944 159.172C77.31 165.14 76.224 171.212 76.614 177.406C77.03 184.006 78.872 190.184 82.736 195.698C85.86 200.158 93.304 200.324 96.624 195.848C97.802 194.258 98.944 192.596 99.802 190.822C102.044 186.192 104.12 181.48 106.262 176.8L106.636 175.944C106.482 178.16 106.302 180.106 106.22 182.054C106.092 185.096 106.27 188.12 107.31 191.014C108.2 193.49 109.714 195.34 112.55 195.666C114.49 195.888 116.036 195 117.462 193.874C119.671 192.128 121.502 189.951 122.844 187.476C126.646 180.494 130.55 173.554 133.996 166.396C137.724 158.654 140.984 150.686 144.446 142.812L145.018 141.416C145.836 144.63 146.406 147.778 147.456 150.758C148.676 154.216 150.186 157.592 151.83 160.874C152.608 162.424 152.518 163.43 151.44 164.73C146.928 170.17 142.494 175.676 138.056 181.176C137.074 182.39 136.096 183.626 135.278 184.952C134.782 185.789 134.455 186.716 134.318 187.68C134.18 188.567 134.391 189.473 134.907 190.208C135.423 190.943 136.203 191.45 137.084 191.622C138.862 192.005 140.685 192.135 142.5 192.008C148.694 191.552 154.318 189.378 159.29 185.694C165.732 180.922 167.8 174.41 166.24 166.692C165.818 164.598 165.072 162.562 164.346 160.544C164.02 159.634 163.998 158.996 164.592 158.148C169.742 150.794 174.142 142.992 178.234 135.01C178.396 134.696 178.562 134.382 178.846 134.046C180.172 140.946 182.168 147.596 185.744 153.63C183.92 155.388 182.114 156.982 180.48 158.738C176.882 162.606 173.762 166.806 172.134 171.928C171.434 174.136 170.896 176.38 171.208 178.738C171.692 182.4 174.692 184.78 178.294 183.946C186.002 182.162 192.656 178.53 197.518 172.096C200.79 167.764 201.088 162.932 199.718 157.87C199.342 156.494 198.896 155.14 198.416 153.562C200.318 152.972 202.172 152.264 204.09 151.826C214.048 149.554 223.898 149.95 233.494 153.546C239.096 155.646 243.622 159.16 246.306 164.688C249.584 171.446 247.772 177.858 241.402 182.13C240.808 182.528 240.128 182.842 239.636 183.34C239.478 183.523 239.361 183.736 239.29 183.967C239.219 184.198 239.198 184.44 239.226 184.68C239.268 184.926 239.918 185.234 240.292 185.23C242.386 185.214 244.084 184.116 245.714 182.988C249.798 180.162 252.778 176.36 253.42 171.354L253.546 170.978L253.392 167.718C253.33 167.53 253.438 167.344 253.424 167.202C252.556 159.912 248.662 154.258 242.998 149.826C236.438 144.696 228.692 142.584 220.5 142.25C213.856 141.964 207.22 142.985 200.97 145.256C199.176 145.906 197.398 146.676 195.594 147.402C195.352 146.964 195.092 146.544 194.878 146.11C193.026 142.318 190.782 138.694 190.286 134.346C189.934 131.258 189.502 128.174 190.236 125.12C190.942 122.182 191.862 119.294 192.728 116.396C193.174 114.904 192.86 114.068 191.436 113.396C190.94 113.149 190.41 112.975 189.864 112.88C186.364 112.372 182.912 112.662 179.522 113.648C178.322 113.998 177.45 114.67 177.184 115.998C177.032 116.76 176.722 117.49 176.506 118.242C175.62 121.368 174.992 124.554 173.56 127.532C169.972 135.002 165.876 142.19 161.684 149.326C161.23 150.096 160.752 150.852 160.18 151.786C158.708 148.706 157.138 145.942 156.662 142.702C156.124 139.038 155.7 135.38 156.612 131.744C157.29 129.032 158.176 126.37 158.992 123.694C159.378 122.422 159.2 121.754 158.048 121.084C157.466 120.746 156.808 120.446 156.152 120.348C152.563 119.801 148.896 120.101 145.444 121.224C144.358 121.576 143.788 122.278 143.456 123.398C142.48 126.702 141.648 130.086 140.278 133.228C134.73 145.948 129.022 158.602 123.32 171.254C122.13 173.896 120.736 176.446 119.394 179.018C119.054 179.67 118.558 180.244 118.134 180.856C117.794 180.454 117.662 180.178 117.664 179.902C117.674 178.276 117.48 176.602 117.79 175.03C118.742 170.276 119.794 165.542 120.946 160.832C121.886 156.94 122.98 153.084 124.022 149.218C124.372 147.924 124.378 146.714 123.448 145.626C121.886 143.804 118.622 143.404 116.686 144.808L115.83 145.292L115.996 143.912C116.404 140.954 116.486 138.006 115.674 135.092C114.662 131.46 112.07 129.37 108.302 129.486C106.546 129.54 104.702 129.84 103.076 130.48C96.238 133.16 90.98 137.906 86.504 143.616C86.089 144.146 85.5748 144.59 84.99 144.924C79.204 148.132 73.4 151.3 67.598 154.48L61.14 158.018C59.408 156.366 57.834 154.652 56.048 153.198C50.594 148.75 45.052 144.412 39.56 140.014C34.692 136.116 29.976 132.056 26.368 126.894C23.684 123.054 21.954 118.852 21.788 114.104C21.578 108.054 23.294 102.526 26.374 97.38C30.314 90.796 35.688 85.512 41.596 80.726C47.846 75.666 54.606 71.37 61.612 67.448C71.414 61.962 81.496 57.106 92.306 53.9C103.39 50.612 114.636 48.73 126.236 50.042C130.796 50.558 135.224 51.602 139.29 53.832C142.404 55.538 144.958 57.772 146.146 61.264C147.318 64.7 147.282 68.182 146.47 71.672C144.82 78.74 140.95 84.566 136.08 89.772C128.092 98.306 118.348 104.116 107.378 107.954C101.071 110.164 94.5081 111.563 87.848 112.12C82.39 112.578 77.046 112.094 71.878 110.196C68.456 108.938 65.476 107.014 63.08 104.222C62.652 103.722 62.104 103.18 61.306 103.648C60.524 104.108 60.386 104.852 60.648 105.606C61.086 106.858 61.49 108.162 62.172 109.282C63.886 112.092 66.386 114.13 69.138 115.878C74.424 119.24 80.332 120.37 86.458 120.632C95.754 121.034 104.824 119.646 113.766 117.152C126.532 113.592 137.632 107.304 146.534 97.384C153.946 89.124 159.24 79.802 160.374 68.546C160.928 63.052 160.338 57.67 157.766 52.658C154.976 47.228 150.54 43.19 145.236 40.408C137.512 36.358 129.176 34 120.572 34H111.952C101.532 34 91.458 36.986 81.666 40.548C74.254 43.246 66.986 46.43 59.93 49.954C44.564 57.632 30.254 66.89 18.5 79.62C12.644 85.962 7.68599 92.96 4.83399 101.2C3.9732 103.66 3.23167 106.16 2.61199 108.692M58.29 180.718C57.624 189.636 53.582 196.866 46.976 202.722C43.26 206.014 38.998 208.358 34.034 209.182C32.234 209.48 30.392 209.552 28.646 208.806C26.156 207.742 25.598 205.532 25.55 203.178C25.476 199.426 26.79 196.034 28.592 192.806C30.944 188.598 34.392 185.39 38.074 182.394C43.874 177.672 50.166 173.676 56.61 169.904L57.096 169.704C58.092 173.384 58.566 177.018 58.29 180.718ZM108.606 141.96C108.136 144.808 107.548 147.658 106.716 150.418C103.84 159.972 100.146 169.23 96.152 178.364C95.414 180.054 94.34 181.596 93.406 183.198C93.2471 183.444 93.0568 183.669 92.84 183.866C91.684 185.008 90.588 184.948 90.004 183.454C89.324 181.718 88.906 179.86 88.546 178.022C88.304 176.788 88.362 175.492 88.286 174.228C88.364 165.24 91.106 157.072 95.758 149.468C97.676 146.332 99.764 143.344 102.954 141.36C103.946 140.743 105.02 140.268 106.144 139.948C107.844 139.47 108.888 140.256 108.606 141.96ZM142.934 185.696L155.272 171.29C155.786 176.64 146.692 187.32 142.934 185.696ZM182.34 176.002C181.468 176.502 180.518 176.862 179.624 177.324C178.806 177.748 178.536 177.32 178.512 176.616C178.5 176.129 178.563 175.642 178.698 175.174C180.364 169.298 183.43 164.282 187.992 160.202L188.312 160.038C190.482 166.108 187.974 172.774 182.34 176.002Z" fill="#CB6699"/>
</svg>
