<svg width="256" height="256" viewBox="0 0 256 256" fill="none" xmlns="http://www.w3.org/2000/svg">
<g clip-path="url(#clip0_2005_354)">
<mask id="mask0_2005_354" style="mask-type:luminance" maskUnits="userSpaceOnUse" x="-45" y="-45" width="357" height="357">
<path d="M311.735 -44.5812H-44.6169V311.771H311.735V-44.5812Z" fill="white"/>
</mask>
<g mask="url(#mask0_2005_354)">
<path d="M244.919 133.593L133.559 244.953" stroke="black" stroke-width="43.5" stroke-linecap="round" stroke-linejoin="round"/>
</g>
<mask id="mask1_2005_354" style="mask-type:luminance" maskUnits="userSpaceOnUse" x="-45" y="-45" width="357" height="357">
<path d="M311.735 -44.6169H-44.6169V311.735H311.735V-44.6169Z" fill="white"/>
</mask>
<g mask="url(#mask1_2005_354)">
<path d="M222.647 11.0617L11.063 222.646" stroke="black" stroke-width="43.5" stroke-linecap="round" stroke-linejoin="round"/>
</g>
<mask id="mask2_2005_354" style="mask-type:luminance" maskUnits="userSpaceOnUse" x="-45" y="-45" width="357" height="357">
<path d="M311.735 -44.5812H-44.6169V311.771H311.735V-44.5812Z" fill="white"/>
</mask>
<g mask="url(#mask2_2005_354)">
<path d="M244.919 133.593L133.559 244.953" stroke="black" stroke-width="43.5" stroke-linecap="round" stroke-linejoin="round"/>
</g>
<mask id="mask3_2005_354" style="mask-type:luminance" maskUnits="userSpaceOnUse" x="-45" y="-45" width="357" height="357">
<path d="M311.735 -44.6169H-44.6169V311.735H311.735V-44.6169Z" fill="white"/>
</mask>
<g mask="url(#mask3_2005_354)">
<path d="M222.647 11.0617L11.063 222.646" stroke="black" stroke-width="43.5" stroke-linecap="round" stroke-linejoin="round"/>
</g>
</g>
<defs>
<clipPath id="clip0_2005_354">
<rect width="256" height="256" fill="white"/>
</clipPath>
</defs>
</svg>
