<svg width="256" height="256" viewBox="0 0 256 256" fill="none" xmlns="http://www.w3.org/2000/svg">
<path d="M168.297 184.438C161.157 190.548 146.905 194.712 130.491 194.712C110.351 194.712 93.4613 188.438 88.9833 180C87.3833 184.836 87.0233 190.368 87.0233 193.908C87.0233 193.908 85.9693 211.258 98.0393 223.328C98.0393 221.838 98.3327 220.363 98.9028 218.987C99.473 217.611 100.309 216.361 101.362 215.307C102.415 214.254 103.666 213.419 105.042 212.849C106.419 212.279 107.894 211.986 109.383 211.986C120.123 211.986 120.117 221.352 120.109 228.962V229.634C120.109 241.18 127.163 251.072 137.195 255.244C135.649 252.068 134.848 248.581 134.851 245.048C134.851 234.032 141.311 229.938 148.827 225.172C154.805 221.384 161.445 217.172 166.015 208.728C168.482 204.178 169.771 199.083 169.765 193.908C169.768 190.694 169.273 187.5 168.297 184.438Z" fill="#FF5D01"/>
<path d="M168.407 184.438C161.267 190.548 147.015 194.712 130.601 194.712C110.461 194.712 93.5707 188.438 89.0927 180C87.4927 184.836 87.1327 190.368 87.1327 193.908C87.1327 193.908 86.0787 211.258 98.1487 223.328C98.1487 221.838 98.4421 220.363 99.0122 218.987C99.5823 217.611 100.418 216.361 101.471 215.307C102.525 214.254 103.775 213.419 105.152 212.849C106.528 212.279 108.003 211.986 109.493 211.986C120.233 211.986 120.227 221.352 120.219 228.962V229.634C120.219 241.18 127.273 251.072 137.305 255.244C135.759 252.068 134.957 248.581 134.961 245.048C134.961 234.032 141.421 229.938 148.937 225.172C154.915 221.384 161.555 217.172 166.125 208.728C168.591 204.178 169.88 199.083 169.875 193.908C169.878 190.694 169.382 187.5 168.407 184.438Z" fill="url(#paint0_linear_6_17)"/>
<path d="M170.336 20.1696C172.703 22.6677 173.91 26.0391 176.313 32.7737L229 180C209.211 171.263 187.971 165.146 166.013 161.86L131.714 63.2493C131.443 62.461 130.879 61.7687 130.106 61.2765C129.333 60.7843 128.394 60.5188 127.428 60.5197C126.463 60.5206 125.524 60.788 124.752 61.2817C123.981 61.7754 123.419 62.4687 123.15 63.2575L89.2623 161.81C67.2081 165.082 45.8732 171.209 26 179.977L78.9347 32.7427C81.3579 26.0164 82.5646 22.6511 84.9294 20.1531C87.0196 17.9542 89.7354 16.2459 92.8192 15.19C96.3055 14 100.449 14 108.718 14H146.532C154.809 14 158.952 14 162.451 15.1983C165.537 16.2539 168.25 17.9656 170.336 20.1696Z" fill="url(#paint1_linear_6_17)"/>
<defs>
<linearGradient id="paint0_linear_6_17" x1="200.555" y1="134.78" x2="158.284" y2="223.272" gradientUnits="userSpaceOnUse">
<stop stop-color="#FF1639"/>
<stop offset="1" stop-color="#FF1639" stop-opacity="0"/>
</linearGradient>
<linearGradient id="paint1_linear_6_17" x1="186.869" y1="6.19185" x2="142.957" y2="183.82" gradientUnits="userSpaceOnUse">
<stop stop-color="#000014"/>
<stop offset="1" stop-color="#150426"/>
</linearGradient>
</defs>
</svg>
