<svg width="256" height="256" viewBox="0 0 256 256" fill="none" xmlns="http://www.w3.org/2000/svg">
<g clip-path="url(#clip0_32_20)">
<path d="M244.056 99.2004C241.545 96.06 238.166 93.5502 234.247 91.914C230.316 90.2713 225.978 89.5536 221.647 89.8294C217.316 90.1052 213.136 91.3654 209.508 93.4895C205.898 95.6072 202.964 98.5211 200.993 101.948C199.055 105.626 198.432 109.746 199.207 113.75C199.982 117.754 202.119 121.45 205.328 124.338C214.116 124.956 222.863 122.755 229.989 118.135C237.086 113.54 242.089 106.815 244.056 99.2004ZM169.199 12.7978L153.164 5.03881L83.3842 39.3143L88.9467 41.9728L99.5298 46.8764L118.683 37.4829L169.21 12.6403L169.199 12.7978ZM175.658 10.4347C176.07 10.526 176.448 10.7097 176.758 10.9682C177.068 11.2267 177.298 11.5515 177.427 11.9116L200.805 72.7824C201.047 73.2649 201.066 73.8125 200.86 74.3078C200.653 74.803 200.236 75.2063 199.699 75.4311C190.801 79.7305 183.795 86.5795 179.816 94.868C175.854 103.133 175.171 112.353 177.88 121.01C181.131 130.451 187.999 138.577 197.288 143.972C206.6 149.388 217.769 151.751 228.85 150.668C229.456 150.636 230.058 150.77 230.576 151.051C231.094 151.333 231.502 151.749 231.747 152.243L255.899 214.719C256.054 215.222 256.03 215.755 255.83 216.246C255.63 216.736 255.264 217.159 254.782 217.456L180.557 255.759C180.203 255.892 179.823 255.959 179.44 255.956C178.754 256.068 178.046 255.964 177.438 255.66L151.395 241.235C150.921 241.017 150.535 240.673 150.289 240.251L99.4193 137.03L21.9533 175.924C21.4893 176.132 20.9804 176.248 20.4614 176.265C19.9423 176.282 19.4253 176.199 18.9453 176.022L1.33995 167.18C0.769132 166.907 0.336848 166.451 0.131333 165.903C-0.0741821 165.356 -0.037432 164.76 0.234082 164.236L75.4883 38.2016C75.7701 37.772 76.1953 37.4313 76.7048 37.2268L151.738 0.29282C152.149 0.100492 152.606 0 153.07 0C153.535 0 153.992 0.100492 154.403 0.29282L175.669 10.4347H175.658ZM82.6101 44.2966L78.9607 42.6326L6.41588 164.532L19.6531 171.109L82.212 98.8853C82.519 98.552 82.911 98.2887 83.3553 98.1175C83.7996 97.9462 84.2834 97.8719 84.7665 97.9007C85.2388 97.9764 85.6851 98.1483 86.0707 98.4027C86.4562 98.6572 86.7706 98.9874 86.9893 99.3678L155.111 237.868L173.313 247.783L100.193 59.1254L97.0859 51.2679L82.5106 44.1981L82.6211 44.2966H82.6101ZM194.8 116.983C193.134 111.55 193.602 105.773 196.127 100.608C198.663 95.4201 203.099 91.1506 208.712 88.4973C214.422 85.6841 220.984 84.5502 227.461 85.2576C233.938 85.965 239.998 88.4775 244.774 92.4359C247.432 94.6883 249.562 97.387 251.042 100.376C252.523 103.365 253.323 106.586 253.398 109.852C253.473 113.118 252.821 116.365 251.48 119.406C250.138 122.447 248.134 125.221 245.582 127.568L244.774 128.287C239.111 133.037 231.631 135.69 223.851 135.708C216.071 135.726 208.575 133.108 202.884 128.385C199.141 125.261 196.358 121.336 194.8 116.983Z" fill="black"/>
</g>
<defs>
<clipPath id="clip0_32_20">
<rect width="256" height="256" fill="white"/>
</clipPath>
</defs>
</svg>
