<svg width="256" height="256" viewBox="0 0 256 256" fill="none" xmlns="http://www.w3.org/2000/svg">
<g clip-path="url(#clip0_6_1038)">
<mask id="mask0_6_1038" style="mask-type:luminance" maskUnits="userSpaceOnUse" x="0" y="0" width="256" height="256">
<path d="M256 0H0V256H256V0Z" fill="white"/>
</mask>
<g mask="url(#mask0_6_1038)">
<path d="M91 258C114.8 258 134 238.8 134 215V172H91C67.2 172 48 191.2 48 215C48 238.8 67.2 258 91 258Z" fill="#0ACF83"/>
<path d="M48 129C48 105.2 67.2 86 91 86H134V172H91C67.2 172 48 152.8 48 129Z" fill="#A259FF"/>
<path d="M48 43C48 19.2 67.2 0 91 0H134V86H91C67.2 86 48 66.8 48 43Z" fill="#F24E1E"/>
<path d="M134 0H177C200.8 0 220 19.2 220 43C220 66.8 200.8 86 177 86H134V0Z" fill="#FF7262"/>
<path d="M220 129C220 152.8 200.8 172 177 172C153.2 172 134 152.8 134 129C134 105.2 153.2 86 177 86C200.8 86 220 105.2 220 129Z" fill="#1ABCFE"/>
</g>
</g>
<defs>
<clipPath id="clip0_6_1038">
<rect width="256" height="256" fill="white"/>
</clipPath>
</defs>
</svg>
