<svg width="263" height="256" viewBox="0 0 263 256" fill="none" xmlns="http://www.w3.org/2000/svg">
<path d="M48.678 187.886C48.3889 188.538 47.3634 188.733 46.4291 188.288C45.4731 187.861 44.9408 186.972 45.2492 186.318C45.5317 185.645 46.5595 185.46 47.509 185.91C48.465 186.337 49.0082 187.236 48.6757 187.888L48.678 187.886ZM53.9925 193.816C53.3689 194.396 52.1457 194.127 51.3156 193.207C50.4553 192.294 50.2944 191.072 50.9311 190.482C51.5785 189.904 52.7649 190.179 53.6252 191.091C54.4814 192.016 54.6509 193.23 53.9948 193.818L53.9925 193.816ZM59.1681 201.373C58.3642 201.933 57.0475 201.411 56.2347 200.243C55.4309 199.074 55.4309 197.672 56.2565 197.114C57.067 196.552 58.3642 197.059 59.1899 198.214C59.9893 199.4 59.9893 200.803 59.1681 201.373ZM66.2535 208.677C65.5366 209.471 64.0025 209.258 62.8814 208.177C61.7363 207.12 61.4169 205.613 62.1361 204.821C62.8661 204.026 64.4066 204.247 65.5343 205.321C66.6793 206.377 67.0249 207.887 66.2579 208.675L66.2535 208.677ZM76.0311 212.917C75.7117 213.945 74.2384 214.413 72.75 213.973C71.2661 213.523 70.2948 212.322 70.599 211.283C70.9033 210.247 72.3872 209.761 73.8843 210.229C75.3684 210.677 76.3395 211.872 76.0311 212.917ZM86.771 213.702C86.808 214.785 85.5478 215.679 83.99 215.701C82.4189 215.738 81.1479 214.861 81.1327 213.796C81.1327 212.703 82.3668 211.819 83.9356 211.787C85.4934 211.758 86.7733 212.628 86.7733 213.7L86.771 213.702ZM96.7615 212.003C96.9484 213.057 95.8641 214.141 94.315 214.43C92.794 214.712 91.3817 214.056 91.1861 213.011C90.9992 211.928 92.103 210.844 93.6239 210.564C95.1754 210.297 96.5659 210.931 96.7615 212.003Z" fill="black"/>
<path fill-rule="evenodd" clip-rule="evenodd" d="M131.21 0C58.7542 0 0 58.7549 0 131.241C0 189.229 37.5956 238.421 89.7293 255.776C96.2845 256.993 98.6919 252.931 98.6919 249.463C98.6919 246.334 98.5702 235.995 98.5137 225.029C62.0111 232.969 54.3086 209.545 54.3086 209.545C48.34 194.374 39.7401 190.342 39.7401 190.342C27.8334 182.196 40.6375 182.365 40.6375 182.365C53.811 183.29 60.7509 195.889 60.7509 195.889C72.4536 215.948 91.4457 210.151 98.9332 206.8C100.111 198.317 103.511 192.524 107.264 189.248C78.12 185.933 47.4818 174.678 47.4818 124.39C47.4818 110.062 52.6096 98.3545 61.003 89.1615C59.6385 85.8581 55.1473 72.5096 62.2719 54.4323C62.2719 54.4323 73.2879 50.9051 98.3617 67.8849C108.83 64.9748 120.057 63.5123 131.21 63.4624C142.356 63.5123 153.589 64.9706 164.077 67.8807C189.12 50.9006 200.125 54.4279 200.125 54.4279C207.265 72.5033 202.775 85.8537 201.412 89.1571C209.825 98.3502 214.916 110.058 214.916 124.386C214.916 174.794 184.221 185.891 155.004 189.142C159.712 193.214 163.906 201.203 163.906 213.445C163.906 231.006 163.754 245.138 163.754 249.461C163.754 252.954 166.118 257.047 172.766 255.757C224.87 238.384 262.423 189.208 262.423 131.241C262.419 58.7593 203.673 0 131.21 0Z" fill="black"/>
</svg>
