<svg width="256" height="256" viewBox="0 0 256 256" fill="none" xmlns="http://www.w3.org/2000/svg">
<path d="M38.074 227.43L18.064 3H237.936L217.904 227.396L127.866 252.356L38.074 227.43Z" fill="#E44D26"/>
<path d="M128 233.928L200.756 213.756L217.874 22H128V233.928Z" fill="#F16529"/>
<path d="M128 105.712H91.576L89.06 77.524H128V50H58.978L59.638 57.384L66.402 133.238H128V105.712ZM128 177.198L127.878 177.232L97.224 168.952L95.266 147.002H67.632L71.488 190.22L127.874 205.872L128 205.838V177.198Z" fill="#EBEBEB"/>
<path d="M127.904 105.712V133.238H161.798L158.604 168.936L127.904 177.222V205.86L184.334 190.22L184.748 185.57L191.216 113.104L191.886 105.712H184.47H127.904ZM127.904 50V77.524H194.392L194.944 71.34L196.2 57.384L196.858 50H127.904Z" fill="white"/>
</svg>
