<svg width="256" height="256" viewBox="0 0 256 256" fill="none" xmlns="http://www.w3.org/2000/svg">
<g clip-path="url(#clip0_6_970)">
<mask id="mask0_6_970" style="mask-type:luminance" maskUnits="userSpaceOnUse" x="0" y="0" width="256" height="256">
<path d="M256 0H0V256H256V0Z" fill="white"/>
</mask>
<g mask="url(#mask0_6_970)">
<path d="M235.376 196.484C221.43 196.102 210.782 197.406 201.672 201.242C199.086 202.336 194.962 202.36 194.54 205.602C195.962 207.094 196.18 209.32 197.314 211.156C199.486 214.664 203.158 219.382 206.432 221.86C210.01 224.556 213.698 227.446 217.534 229.782C224.362 233.946 231.98 236.322 238.542 240.486C242.418 242.946 246.26 246.04 250.042 248.814C251.91 250.182 253.168 252.314 255.588 253.174V252.784C254.314 251.16 253.986 248.924 252.814 247.23L247.658 242.074C242.618 235.386 236.22 229.512 229.424 224.636C224.002 220.738 211.862 215.48 209.604 209.176L209.206 208.778C213.05 208.34 217.55 206.95 221.104 205.996C227.064 204.402 232.394 204.816 238.542 203.222L246.87 200.848V199.262C243.76 196.074 241.542 191.848 238.152 188.958C229.27 181.396 219.582 173.848 209.606 167.552C204.074 164.06 197.238 161.786 191.372 158.826C189.396 157.834 185.934 157.31 184.63 155.654C181.552 151.732 179.872 146.756 177.498 142.178C172.522 132.592 167.638 122.132 163.224 112.046C160.216 105.172 158.256 98.3901 154.506 92.2261C136.506 62.6321 117.132 44.7661 87.1159 27.2101C80.7259 23.4761 73.0379 22.0001 64.9119 20.0701L51.8259 19.2801C49.1619 18.1701 46.3959 14.9121 43.8959 13.3261C33.9539 7.04019 8.44587 -6.62382 1.07787 11.3441C-3.57013 22.6801 8.03187 33.7422 12.1799 39.4922C15.0939 43.5162 18.8199 48.0381 20.8979 52.5701C22.2739 55.5541 22.5079 58.5381 23.6799 61.6881C26.5559 69.4541 29.0699 77.9061 32.7979 85.0781C34.6799 88.7101 36.7579 92.5321 39.1419 95.7821C40.5959 97.7741 43.1019 98.6581 43.5019 101.728C41.0479 105.158 40.9079 110.478 39.5339 114.814C33.3379 134.354 35.6819 158.634 44.6899 173.088C47.4559 177.534 53.9719 187.048 62.9239 183.4C70.7599 180.204 69.0099 170.322 71.2519 161.596C71.7599 159.62 71.4479 158.166 72.4399 156.838V157.236L79.5799 171.502C84.8619 180.01 94.2279 188.9 102.174 194.9C106.292 198.01 109.534 203.384 114.862 205.204V204.806H114.464C113.432 203.196 111.816 202.532 110.504 201.244C107.402 198.198 103.95 194.416 101.386 190.932C94.1599 181.128 87.7759 170.392 81.9639 159.222C79.1819 153.886 76.7679 148.004 74.4239 142.574C73.5179 140.48 73.5339 137.308 71.6499 136.23C69.0879 140.206 65.3059 143.426 63.3219 148.12C60.1579 155.628 59.7439 164.792 58.5719 174.284C57.8759 174.534 58.1819 174.362 57.7759 174.682C52.2519 173.346 50.3159 167.666 48.2599 162.784C43.0719 150.456 42.1039 130.604 46.6739 116.402C47.8539 112.73 53.1979 101.168 51.0339 97.7701C50.0019 94.3881 46.5959 92.4261 44.6899 89.8401C42.3299 86.6441 39.9799 82.4341 38.3459 78.7381C34.0959 69.1281 32.1199 58.3321 27.6419 48.6141C25.5019 43.9661 21.8919 39.2622 18.9239 35.1382C15.6339 30.5602 11.9559 27.1841 9.40787 21.6541C8.50187 19.6861 7.27587 16.5361 8.61187 14.5221C9.04187 13.1541 9.64387 12.5841 10.9939 12.1401C13.2899 10.3661 19.6979 12.7341 22.0879 13.7261C28.4479 16.3661 33.7519 18.8821 39.1419 22.4521C41.7199 24.1621 44.3379 27.4761 47.4619 28.3981H51.0319C56.6099 29.6801 62.8599 28.7881 68.0779 30.3741C77.2959 33.1781 85.5539 37.5381 93.0539 42.2721C115.898 56.7021 134.586 77.2321 147.366 101.74C149.42 105.686 150.312 109.444 152.124 113.63C155.772 122.068 160.374 130.748 164.006 139.006C167.638 147.232 171.17 155.546 176.302 162.396C178.998 165.998 189.404 167.928 194.138 169.928C197.458 171.326 202.896 172.788 206.036 174.686C212.036 178.304 217.848 182.616 223.482 186.576C226.286 188.56 234.942 192.912 235.372 196.49L235.376 196.484ZM58.1659 45.4441C55.2599 45.3901 53.2059 45.7562 51.0339 46.2342V46.6321H51.4239C52.8139 49.4761 55.2599 51.3121 56.9779 53.7641L60.9379 62.0921L61.3359 61.7021C63.7899 59.9681 64.9139 57.2022 64.8979 52.9762C63.9139 51.9362 63.7739 50.6481 62.9139 49.4061C61.7899 47.7581 59.5939 46.8281 58.1639 45.4461L58.1659 45.4441Z" fill="#00618A"/>
</g>
</g>
<defs>
<clipPath id="clip0_6_970">
<rect width="256" height="256" fill="white"/>
</clipPath>
</defs>
</svg>
