<svg width="256" height="256" viewBox="0 0 256 256" fill="none" xmlns="http://www.w3.org/2000/svg">
<g clip-path="url(#clip0_6_107)">
<mask id="mask0_6_107" style="mask-type:luminance" maskUnits="userSpaceOnUse" x="0" y="0" width="256" height="256">
<path d="M256 0H0V256H256V0Z" fill="white"/>
</mask>
<g mask="url(#mask0_6_107)">
<path d="M128 256C198.692 256 256 198.692 256 128C256 57.3075 198.692 0 128 0C57.3075 0 0 57.3075 0 128C0 198.692 57.3075 256 128 256Z" fill="black"/>
<path d="M212.634 224.028L98.3338 76.7998H76.7998V179.158H94.0278V98.6778L199.108 234.446C203.843 231.278 208.362 227.798 212.634 224.028Z" fill="url(#paint0_linear_6_107)"/>
<path d="M163.556 76.7998H180.622V179.2H163.556V76.7998Z" fill="url(#paint1_linear_6_107)"/>
</g>
</g>
<defs>
<linearGradient id="paint0_linear_6_107" x1="155.022" y1="165.689" x2="205.511" y2="228.266" gradientUnits="userSpaceOnUse">
<stop stop-color="white"/>
<stop offset="1" stop-color="white" stop-opacity="0"/>
</linearGradient>
<linearGradient id="paint1_linear_6_107" x1="172.089" y1="76.7997" x2="171.803" y2="152" gradientUnits="userSpaceOnUse">
<stop stop-color="white"/>
<stop offset="1" stop-color="white" stop-opacity="0"/>
</linearGradient>
<clipPath id="clip0_6_107">
<rect width="256" height="256" fill="white"/>
</clipPath>
</defs>
</svg>
