<svg width="256" height="256" viewBox="0 0 256 256" fill="none" xmlns="http://www.w3.org/2000/svg">
<path d="M187.618 184.164C189.188 171.098 188.718 169.18 198.45 171.298L200.92 171.514C208.404 171.854 218.194 170.31 223.946 167.638C236.328 161.892 243.668 152.302 231.462 154.82C203.614 160.566 201.7 151.136 201.7 151.136C231.106 107.506 243.398 52.1204 232.786 38.5624C203.846 1.58435 153.752 19.0704 152.914 19.5224L152.646 19.5724C147.144 18.4304 140.986 17.7483 134.068 17.6363C121.466 17.4283 111.904 20.9404 104.65 26.4404C104.65 26.4404 15.284 -10.3777 19.442 72.7424C20.326 90.4244 44.786 206.538 73.962 171.466C84.626 158.642 94.93 147.798 94.93 147.798C100.046 151.196 106.174 152.932 112.598 152.308L113.096 151.884C112.94 153.476 113.008 155.034 113.294 156.878C105.78 165.276 107.988 166.75 92.962 169.842C77.758 172.974 86.69 178.552 92.52 180.01C99.59 181.778 115.944 184.282 126.996 168.814L126.556 170.578C129.504 172.938 129.306 187.532 129.722 197.958C130.14 208.386 130.838 218.116 132.964 223.854C135.09 229.592 137.598 244.366 157.346 240.134C173.85 236.606 186.468 231.516 187.618 184.164Z" fill="black"/>
<path d="M150.916 250.023C142.182 250.023 136.494 246.645 133.04 243.383C127.826 238.463 125.758 232.125 124.522 228.339L123.988 226.759C121.5 220.043 120.656 210.373 120.156 197.921C120.08 196.051 120.028 194.125 119.97 192.083C119.928 190.589 119.876 188.715 119.8 186.755C116.653 188.255 113.313 189.311 109.876 189.891C103.718 190.943 97.098 190.603 90.196 188.877C85.326 187.659 80.266 185.135 77.382 181.237C68.976 188.599 60.958 187.601 56.59 186.143C48.884 183.573 41.988 176.351 35.506 164.069C30.888 155.319 26.422 143.919 22.23 130.183C14.93 106.263 10.292 81.0694 9.88003 72.7974C8.58403 46.9074 15.554 28.3914 30.592 17.7694C54.314 1.01334 90.256 10.8674 103.36 15.3414C112.164 10.0354 122.522 7.45335 134.226 7.63935C140.512 7.74135 146.498 8.29335 152.058 9.28535C157.858 7.46135 169.314 4.84335 182.428 5.00735C206.59 5.29535 226.612 14.7114 240.326 32.2374C250.114 44.7414 245.274 70.9994 241.52 85.5394C236.236 105.991 226.978 127.743 215.606 146.679C218.694 146.701 223.168 146.331 229.528 145.017C242.076 142.427 245.746 149.155 246.742 152.167C250.732 164.251 233.388 173.383 227.978 175.895C221.046 179.113 209.744 181.073 200.488 180.649L200.084 180.623L197.652 180.409L197.412 182.437L197.18 184.419C196.558 208.417 193.13 223.615 186.076 233.657C178.682 244.185 168.406 247.135 159.354 249.075C156.266 249.735 153.46 250.023 150.916 250.023ZM132.536 162.681C138.174 167.193 138.668 175.683 139.11 191.549C139.166 193.529 139.218 195.403 139.288 197.153C139.5 202.453 139.998 214.863 141.942 220.107C142.216 220.849 142.462 221.601 142.722 222.399C144.888 229.031 145.974 232.357 155.34 230.355C163.202 228.669 167.244 227.157 170.408 222.653C175.006 216.105 177.578 202.933 178.05 183.503L187.616 183.735L178.116 182.595L178.396 180.223C179.306 172.403 179.962 166.755 185.188 163.019C189.382 160.023 194.16 160.313 197.966 160.999C193.784 157.839 192.628 154.133 192.32 152.613L191.522 148.683L193.764 145.357C206.678 126.197 217.326 102.649 222.982 80.7494C228.794 58.2474 227.022 46.2974 225.25 44.0374C201.792 14.0634 161.114 26.4394 156.866 27.8434L156.148 28.2314L152.548 28.9014L150.704 28.5194C145.62 27.4634 139.972 26.8794 133.918 26.7814C124.406 26.6214 116.732 28.8694 110.44 33.6434L106.074 36.9534L101.008 34.8674C90.184 30.4414 58.392 21.5434 41.616 33.4254C32.304 40.0214 28.062 52.9454 29.006 71.8394C29.318 78.0774 33.556 101.691 40.548 124.593C50.21 156.243 58.99 166.757 62.656 167.979C63.296 168.195 64.956 166.905 66.608 164.921C73.4963 156.664 80.6288 148.614 87.996 140.781L93.536 134.951L100.234 139.401C102.934 141.195 105.912 142.213 108.97 142.405L124.944 128.781L122.63 152.397C122.578 152.927 122.552 153.649 122.76 154.989L123.456 159.465L120.436 162.841L120.088 163.233L128.864 167.283L132.536 162.681Z" fill="black"/>
<path d="M231.462 154.818C203.612 160.564 201.698 151.134 201.698 151.134C231.104 107.502 243.396 52.1144 232.788 38.5604C203.848 1.58434 153.75 19.0704 152.914 19.5244L152.644 19.5724C147.142 18.4304 140.984 17.7504 134.062 17.6384C121.46 17.4324 111.902 20.9424 104.648 26.4424C104.648 26.4424 15.28 -10.3736 19.436 72.7444C20.32 90.4284 44.78 206.542 73.956 171.47C84.62 158.646 94.922 147.802 94.922 147.802C100.04 151.2 106.166 152.936 112.588 152.312L113.088 151.888C112.932 153.48 113.004 155.038 113.288 156.882C105.772 165.28 107.98 166.754 92.954 169.846C77.75 172.978 86.682 178.556 92.514 180.014C99.582 181.782 115.938 184.286 126.988 168.818L126.546 170.582C129.492 172.942 131.56 185.926 131.214 197.696C130.868 209.466 130.634 217.548 132.956 223.86C135.276 230.172 137.588 244.372 157.34 240.14C173.844 236.604 182.396 227.438 183.588 212.15C184.432 201.28 186.342 202.888 186.464 193.17L187.998 188.57C189.766 173.836 188.278 169.084 198.448 171.294L200.918 171.51C208.402 171.85 218.196 170.306 223.946 167.634C236.326 161.892 243.668 152.3 231.462 154.818Z" fill="#336791"/>
<path d="M151.914 244.088C135.45 244.088 130.234 231.05 128.1 225.718C124.976 217.904 124.302 187.58 124.998 162.712C125.008 162.293 125.101 161.879 125.272 161.496C125.443 161.113 125.688 160.767 125.993 160.479C126.298 160.191 126.656 159.966 127.049 159.817C127.441 159.668 127.859 159.599 128.278 159.612C128.697 159.623 129.109 159.717 129.492 159.888C129.874 160.059 130.22 160.304 130.507 160.608C130.795 160.913 131.02 161.271 131.17 161.662C131.319 162.054 131.39 162.471 131.378 162.89C130.576 191.572 131.714 217.564 134.026 223.348C137.634 232.366 143.106 240.254 158.576 236.94C173.262 233.79 178.762 228.222 181.212 214.02C183.092 203.122 186.81 172.118 187.268 166C187.299 165.582 187.411 165.174 187.6 164.8C187.789 164.425 188.049 164.092 188.367 163.818C188.685 163.545 189.053 163.337 189.451 163.206C189.85 163.075 190.27 163.024 190.688 163.056C191.532 163.12 192.315 163.516 192.867 164.157C193.419 164.798 193.694 165.632 193.632 166.476C193.154 172.846 189.454 203.79 187.502 215.106C184.61 231.88 177.132 239.488 159.914 243.18C156.988 243.806 154.33 244.086 151.914 244.088ZM62.6419 180.406C61.2028 180.401 59.7738 180.165 58.4099 179.706C47.7159 176.138 37.5299 158.722 28.1339 127.936C20.9819 104.502 16.4499 80.0418 16.0519 72.0918C14.8739 48.5238 20.9419 31.8498 34.0919 22.5358C60.1059 4.10387 103.868 21.6558 105.718 22.4118C106.502 22.732 107.126 23.3503 107.454 24.1308C107.782 24.9114 107.786 25.7901 107.466 26.5738C107.146 27.3576 106.527 27.982 105.747 28.3098C104.966 28.6376 104.088 28.642 103.304 28.3218C102.882 28.1498 60.9179 11.3378 37.7679 27.7518C26.5239 35.7238 21.3619 50.5359 22.4239 71.7739C22.7579 78.4719 26.9919 102.344 34.2359 126.072C42.6239 153.556 52.1699 170.898 60.4279 173.652C61.7239 174.084 65.6679 175.398 71.3059 168.618C77.8805 160.721 84.7019 153.034 91.7599 145.566C92.3505 144.977 93.1481 144.642 93.9822 144.634C94.8163 144.626 95.6205 144.944 96.2227 145.521C96.8249 146.098 97.1773 146.888 97.2044 147.722C97.2316 148.556 96.9313 149.367 96.3679 149.982C96.2719 150.082 86.6739 160.116 76.2139 172.7C71.2599 178.658 66.5119 180.406 62.6419 180.406ZM201.5 153.516C200.921 153.515 200.354 153.357 199.858 153.059C199.362 152.761 198.957 152.333 198.686 151.822C198.414 151.311 198.286 150.736 198.316 150.158C198.346 149.581 198.533 149.022 198.856 148.542C228.582 104.432 239.016 51.1339 230.08 39.7139C218.832 25.3419 202.95 17.8358 182.872 17.4018C168.006 17.0818 156.19 20.8778 154.258 21.5398L153.772 21.7378C151.83 22.3478 150.34 21.2838 149.778 20.0398C149.457 19.3271 149.409 18.5218 149.641 17.7757C149.874 17.0296 150.371 16.3944 151.04 15.9898C151.132 15.9358 151.424 15.8118 151.898 15.6378C155.18 14.4358 167.176 10.8358 182.034 11.0058C204.25 11.2418 222.602 19.8078 235.102 35.7818C241.016 43.3398 241.03 60.7518 235.14 83.5558C229.136 106.806 217.838 131.792 204.146 152.11C203.534 153.024 202.526 153.516 201.5 153.516ZM203.02 173.936C197.944 173.936 193.394 173.22 190.67 171.588C187.87 169.91 187.336 167.63 187.266 166.42C186.502 153 193.906 150.664 197.682 149.598C197.156 148.802 196.408 147.866 195.634 146.9C193.432 144.148 190.416 140.38 188.092 134.744C187.728 133.864 186.588 131.818 185.268 129.448C178.11 116.612 163.216 89.9018 172.784 76.2238C177.212 69.8938 186.03 67.4019 199.022 68.7919C195.2 57.1479 177 20.7238 133.814 20.0158C120.826 19.7998 110.174 23.7938 102.17 31.8758C84.2499 49.9738 84.8979 82.7198 84.9079 83.0478C84.919 83.4668 84.8474 83.8838 84.6972 84.275C84.5471 84.6663 84.3214 85.0241 84.033 85.3281C83.7446 85.6321 83.3991 85.8764 83.0163 86.0469C82.6335 86.2174 82.2208 86.3108 81.8019 86.3218C81.383 86.3329 80.966 86.2613 80.5748 86.1112C80.1835 85.961 79.8257 85.7353 79.5217 85.4469C79.2176 85.1585 78.9734 84.813 78.8029 84.4302C78.6324 84.0474 78.539 83.6348 78.5279 83.2158C78.4879 81.7618 77.8199 47.3978 97.6359 27.3838C106.91 18.0178 119.118 13.3938 133.92 13.6358C161.548 14.0898 179.332 28.1358 189.384 39.8378C200.342 52.5918 205.714 66.6599 206.156 71.3559C206.486 74.8479 203.98 75.5458 203.474 75.6498L202.322 75.6759C189.572 73.6339 181.392 75.0519 178.01 79.8839C170.732 90.2859 184.822 115.552 190.838 126.342C192.374 129.094 193.482 131.084 193.99 132.312C195.966 137.104 198.544 140.324 200.614 142.912C202.436 145.188 204.014 147.162 204.578 149.478C204.84 149.938 208.558 155.438 230.62 150.884C236.15 149.744 239.466 150.718 240.48 153.784C242.474 159.814 231.286 166.848 225.092 169.724C219.542 172.304 210.684 173.936 203.02 173.936ZM193.628 165.894C194.328 166.6 197.83 167.818 205.082 167.506C211.53 167.23 218.33 165.828 222.41 163.934C227.628 161.51 231.112 158.8 232.916 156.95L231.916 157.134C217.81 160.046 207.832 159.658 202.26 155.98C201.885 155.733 201.525 155.465 201.18 155.178C200.576 155.416 200.018 155.572 199.62 155.684C196.46 156.57 193.192 157.488 193.628 165.894ZM102.504 183.724C98.9999 183.724 95.3119 183.246 91.5459 182.304C87.6439 181.328 81.0659 178.39 81.1659 173.564C81.2799 168.15 89.1539 166.526 92.1179 165.916C102.826 163.71 103.524 162.826 106.87 158.576C107.846 157.338 109.06 155.796 110.716 153.948C113.174 151.196 115.86 149.802 118.7 149.802C120.678 149.802 122.3 150.472 123.372 150.918C126.788 152.334 129.638 155.758 130.81 159.852C131.868 163.546 131.362 167.102 129.39 169.864C122.916 178.93 113.618 183.724 102.504 183.724ZM88.0599 173.838C89.0219 174.582 90.9499 175.576 93.0959 176.112C96.3579 176.928 99.5219 177.342 102.506 177.342C111.598 177.342 118.898 173.578 124.2 166.154C125.306 164.606 124.974 162.64 124.678 161.606C124.058 159.44 122.518 157.47 120.932 156.812C120.072 156.456 119.358 156.184 118.702 156.184C118.35 156.184 117.278 156.184 115.474 158.202C114.229 159.602 113.032 161.044 111.886 162.526C107.718 167.818 105.808 169.614 93.4079 172.168C90.3819 172.788 88.8299 173.42 88.0599 173.838ZM112.598 159.118C111.836 159.117 111.1 158.843 110.522 158.346C109.944 157.85 109.563 157.163 109.448 156.41C109.368 155.88 109.314 155.347 109.288 154.812C101.16 154.66 93.3179 151.172 87.3639 144.96C79.8359 137.106 76.4099 126.224 77.9659 115.106C79.6559 103.032 79.0239 92.3739 78.6839 86.6479C78.5899 85.0559 78.5219 83.9058 78.5259 83.1098C78.5319 82.0998 78.5519 79.4219 87.5039 74.8839C90.6879 73.2699 97.0719 70.4539 104.046 69.7319C115.6 68.5379 123.216 73.6838 125.496 84.2238C131.65 112.68 125.984 125.266 121.846 134.458C121.076 136.17 120.348 137.786 119.766 139.352L119.252 140.732C117.066 146.594 115.176 151.658 115.756 155.44C115.82 155.854 115.801 156.277 115.701 156.684C115.602 157.091 115.423 157.474 115.175 157.812C114.927 158.15 114.615 158.436 114.256 158.653C113.898 158.87 113.5 159.015 113.086 159.078L112.598 159.118ZM84.9279 83.9938L85.0519 86.2718C85.4039 92.2198 86.0599 103.288 84.2839 115.992C83.0019 125.162 85.8019 134.112 91.9699 140.544C96.8439 145.628 103.258 148.434 109.85 148.434H109.986C110.724 145.324 111.95 142.04 113.27 138.502L113.78 137.13C114.438 135.362 115.208 133.65 116.024 131.838C120.006 122.99 124.964 111.976 119.254 85.5738C118.124 80.3438 115.382 77.3178 110.876 76.3198C101.62 74.2758 87.8259 81.2378 84.9279 83.9938ZM104.188 82.6398C104.028 83.7678 106.254 86.7798 109.158 87.1818C112.056 87.5878 114.536 85.2318 114.694 84.1038C114.852 82.9758 112.628 81.7318 109.724 81.3278C106.82 80.9238 104.342 81.5118 104.188 82.6398ZM109.824 88.2918L109.01 88.2358C107.21 87.9858 105.39 86.8518 104.144 85.1998C103.706 84.6198 102.992 83.4958 103.134 82.4918C103.336 81.0198 105.132 80.1378 107.934 80.1378C108.56 80.1378 109.212 80.1838 109.868 80.2758C111.4 80.4878 112.822 80.9298 113.872 81.5158C115.692 82.5318 115.826 83.6658 115.744 84.2518C115.52 85.8778 112.934 88.2918 109.824 88.2918ZM105.246 82.8278C105.336 83.5238 107.06 85.8198 109.304 86.1298L109.826 86.1658C111.898 86.1658 113.446 84.5358 113.628 84.0018C113.436 83.6378 112.104 82.7338 109.578 82.3818C109.034 82.305 108.485 82.2655 107.936 82.2638C106.312 82.2638 105.45 82.6298 105.246 82.8278ZM192.456 80.3378C192.614 81.4658 190.39 84.4778 187.488 84.8818C184.588 85.2858 182.106 82.9318 181.946 81.8038C181.794 80.6758 184.018 79.4298 186.918 79.0278C189.818 78.6218 192.296 79.2118 192.456 80.3378ZM186.818 85.4578C184.026 85.4578 181.616 83.2858 181.418 81.8758C181.188 80.1838 183.974 78.8978 186.842 78.4998C187.474 78.4118 188.1 78.3678 188.702 78.3678C191.178 78.3678 192.818 79.0938 192.982 80.2658C193.088 81.0238 192.506 82.1938 191.504 83.2498C190.842 83.9438 189.452 85.1458 187.558 85.4078L186.818 85.4578ZM188.704 79.4318C188.149 79.4318 187.579 79.4725 186.992 79.5538C184.11 79.9558 182.39 81.1118 182.474 81.7318C182.57 82.4138 184.41 84.3958 186.82 84.3958L187.414 84.3538C188.988 84.1358 190.17 83.1078 190.734 82.5158C191.62 81.5858 191.972 80.7099 191.93 80.4119C191.874 80.0159 190.81 79.4318 188.704 79.4318ZM196.634 145.118C196.056 145.118 195.488 144.961 194.993 144.664C194.497 144.367 194.091 143.94 193.819 143.43C193.547 142.92 193.419 142.345 193.448 141.768C193.478 141.19 193.663 140.632 193.986 140.152C200.782 130.002 199.538 119.652 198.336 109.642C197.822 105.378 197.294 100.968 197.43 96.7358C197.57 92.3818 198.124 88.7898 198.658 85.3158C199.292 81.1998 199.892 77.3119 199.644 72.6959C199.621 72.2775 199.681 71.8587 199.821 71.4635C199.96 71.0683 200.176 70.7044 200.455 70.3926C200.735 70.0808 201.074 69.8272 201.452 69.6462C201.83 69.4652 202.24 69.3604 202.658 69.3378C203.076 69.3153 203.495 69.3753 203.89 69.5145C204.285 69.6538 204.649 69.8695 204.961 70.1494C205.591 70.7146 205.97 71.5069 206.016 72.3518C206.3 77.6278 205.622 82.0278 204.966 86.2858C204.46 89.5718 203.936 92.9698 203.81 96.9399C203.688 100.688 204.166 104.668 204.672 108.88C205.952 119.524 207.402 131.588 199.29 143.702C198.997 144.138 198.602 144.495 198.139 144.742C197.676 144.989 197.159 145.118 196.634 145.118Z" fill="white"/>
</svg>
