<svg width="256" height="256" viewBox="0 0 256 256" fill="none" xmlns="http://www.w3.org/2000/svg">
<path d="M122.88 256C101.153 256 80.3168 247.369 64.9538 232.006C49.5908 216.643 40.96 195.807 40.96 174.08C40.96 152.353 49.5908 131.517 64.9538 116.154C80.3168 100.791 101.153 92.16 122.88 92.16V256ZM122.88 0H40.96V81.92H122.88V0ZM174.08 81.92C184.943 81.92 195.362 77.6046 203.043 69.9231C210.725 62.2416 215.04 51.8233 215.04 40.96C215.04 30.0967 210.725 19.6784 203.043 11.9969C195.362 4.31542 184.943 0 174.08 0C163.217 0 152.798 4.31542 145.117 11.9969C137.435 19.6784 133.12 30.0967 133.12 40.96C133.12 51.8233 137.435 62.2416 145.117 69.9231C152.798 77.6046 163.217 81.92 174.08 81.92Z" fill="black"/>
</svg>
