<svg width="256" height="256" viewBox="0 0 256 256" fill="none" xmlns="http://www.w3.org/2000/svg">
<path d="M128 150.6C140.592 150.6 150.8 140.392 150.8 127.8C150.8 115.208 140.592 105 128 105C115.408 105 105.2 115.208 105.2 127.8C105.2 140.392 115.408 150.6 128 150.6Z" fill="#61DAFB"/>
<path d="M214.6 90.1999C210.2 88.5999 205.6 87 200.8 85.6C202 80.8 203 75.9999 203.8 71.3999C208 44.9999 203.4 26.3999 190.6 19.2C186.8 16.9999 182.6 16 177.8 16C163.8 16 146 26.4 128 43.8C110 26.4 92.2002 16 78.2002 16C73.4002 16 69.2003 16.9999 65.4003 19.2C52.6003 26.6 48.0003 45.1999 52.2003 71.3999C53.0003 75.9999 54.0003 80.8 55.2003 85.6C50.4003 87 45.8003 88.3999 41.4003 90.1999C16.4003 99.7999 2.80029 113 2.80029 127.8C2.80029 142.6 16.6003 155.8 41.4003 165.4C45.8003 167 50.4003 168.6 55.2003 170C54.0003 174.8 53.0003 179.6 52.2003 184.2C48.0003 210.6 52.6003 229.2 65.4003 236.4C69.2003 238.6 73.4002 239.6 78.2002 239.6C92.4002 239.6 110.2 229.2 128 211.8C146 229.2 163.8 239.6 177.8 239.6C182.6 239.6 186.8 238.6 190.6 236.4C203.4 229 208 210.4 203.8 184.2C203 179.6 202 174.8 200.8 170C205.6 168.6 210.2 167.2 214.6 165.4C239.6 155.8 253.2 142.6 253.2 127.8C253.2 113 239.6 99.7999 214.6 90.1999ZM185 29.2C193.2 34 196 48.8 192.6 69.8C192 74 191 78.4 189.8 83C179.4 80.6 168.4 78.9999 156.8 77.9999C150 68.3999 143 59.8 136 52C150.8 37.4 165.8 27.4 178 27.4C180.6 27.4 183 27.9999 185 29.2ZM162.6 147.8C159 154.2 154.8 160.6 150.4 167C143 167.6 135.6 167.8 128 167.8C120.2 167.8 112.8 167.6 105.6 167C101.2 160.6 97.2002 154.2 93.6002 147.8C89.8002 141.2 86.2002 134.4 83.0002 127.8C86.2002 121.2 89.8002 114.4 93.6002 107.8C97.2002 101.4 101.4 95 105.8 88.6C113.2 88 120.6 87.8 128.2 87.8C136 87.8 143.4 88 150.6 88.6C155 95 159 101.4 162.6 107.8C166.4 114.4 170 121.2 173.2 127.8C169.8 134.4 166.4 141 162.6 147.8ZM179.2 141.2C182.2 148.2 184.6 155 186.8 161.8C180 163.4 172.8 164.6 165.2 165.6C167.6 161.8 170.2 157.8 172.4 153.6C174.8 149.4 177 145.2 179.2 141.2ZM128 195.4C123.2 190.2 118.6 184.6 114.2 178.8C118.8 179 123.4 179.2 128 179.2C132.6 179.2 137.2 179 141.8 178.8C137.4 184.6 132.8 190.2 128 195.4ZM90.8002 165.4C83.2002 164.4 76.0002 163.2 69.2002 161.6C71.4002 155 73.8002 148 76.8002 141C79.0002 145 81.2002 149.2 83.6002 153.2C86.0002 157.6 88.4002 161.4 90.8002 165.4ZM76.8002 114.4C73.8002 107.4 71.4002 100.6 69.2002 93.8C76.0002 92.2 83.2002 91 90.8002 90C88.4002 93.8 85.8002 97.8 83.6002 102C81.2002 106.2 79.0002 110.4 76.8002 114.4ZM128 60.2C132.8 65.4 137.4 71 141.8 76.8C137.2 76.6 132.6 76.3999 128 76.3999C123.4 76.3999 118.8 76.6 114.2 76.8C118.6 71 123.2 65.4 128 60.2ZM172.4 102.2L165.2 90.1999C172.8 91.1999 180 92.4 186.8 94C184.6 100.6 182.2 107.6 179.2 114.6C177 110.4 174.8 106.2 172.4 102.2ZM63.4003 69.8C60.0003 48.8 62.8002 34 71.0002 29.2C73.0002 27.9999 75.4002 27.4 78.0002 27.4C90.0002 27.4 105 37.2 120 52C113 59.6 106 68.3999 99.2002 77.9999C87.6002 78.9999 76.6002 80.8 66.2002 83C65.0002 78.4 64.2003 74 63.4003 69.8ZM14.0002 127.8C14.0002 118.4 25.4003 108.4 45.4003 101C49.4003 99.4 53.8003 98 58.2003 96.8C61.4003 106.8 65.4002 117.4 70.2002 128C65.4002 138.6 61.2003 149 58.2003 159C30.6002 151 14.0002 139 14.0002 127.8ZM71.0002 226.4C62.8002 221.6 60.0003 206.8 63.4003 185.8C64.0003 181.6 65.0002 177.2 66.2002 172.6C76.6002 175 87.6002 176.6 99.2002 177.6C106 187.2 113 195.8 120 203.6C105.2 218.2 90.2002 228.2 78.0002 228.2C75.4002 228.2 73.0002 227.6 71.0002 226.4ZM192.6 185.8C196 206.8 193.2 221.6 185 226.4C183 227.6 180.6 228.2 178 228.2C166 228.2 151 218.4 136 203.6C143 196 150 187.2 156.8 177.6C168.4 176.6 179.4 174.8 189.8 172.6C191 177.2 191.8 181.6 192.6 185.8ZM210.6 154.6C206.6 156.2 202.2 157.6 197.8 158.8C194.6 148.8 190.6 138.2 185.8 127.6C190.6 117 194.8 106.6 197.8 96.6C225.4 104.6 242 116.6 242 127.8C242 137.2 230.4 147.2 210.6 154.6Z" fill="#61DAFB"/>
</svg>
