<svg width="256" height="256" viewBox="0 0 256 256" fill="none" xmlns="http://www.w3.org/2000/svg">
<path d="M198.08 102.111C190.788 99.8147 187.024 100.589 179.378 99.7507C167.558 98.4607 162.848 93.8327 160.85 81.9247C159.732 75.2767 161.052 65.5427 158.198 59.5167C152.74 48.0247 139.968 42.8707 127.138 45.8127C116.304 48.3007 107.29 59.1447 106.79 70.2767C106.22 82.9867 113.45 93.8327 125.864 97.5767C131.764 99.3567 138.03 100.253 144.19 100.707C155.488 101.533 156.356 107.823 159.41 113.001C161.338 116.265 163.204 119.481 163.204 129.215C163.204 138.949 161.326 142.163 159.412 145.427C156.356 150.593 152.586 153.977 141.288 154.813C135.128 155.269 128.848 156.165 122.964 157.947C110.548 161.701 103.318 172.533 103.888 185.245C104.388 196.377 113.402 207.221 124.236 209.709C137.066 212.661 149.838 207.497 155.296 196.005C158.162 189.979 159.732 183.151 160.85 176.505C162.86 164.595 167.57 159.967 179.378 158.675C187.024 157.839 194.938 158.675 202.104 154.599C209.674 149.059 216.44 140.739 216.44 129.215C216.44 117.687 209.15 105.603 198.08 102.111Z" fill="#F44250"/>
<path d="M76.8001 127.298C61.9001 127.298 49.7441 115.102 49.7441 100.148C49.7441 85.196 61.8981 73 76.7981 73C91.6981 73 103.854 85.196 103.854 100.148C103.854 115.088 91.6881 127.298 76.7981 127.298H76.8001ZM26.9601 182.472C12.0801 182.436 -0.03592 170.192 8.00173e-05 155.226C0.03608 140.286 12.2381 128.126 27.1501 128.174C42.0381 128.21 54.1561 140.454 54.1101 155.418C54.0741 170.346 41.8701 182.508 26.9601 182.472ZM227.984 182.472C213.06 182.554 200.812 170.442 200.726 155.526C200.644 140.55 212.714 128.258 227.578 128.174C242.502 128.09 254.752 140.202 254.836 155.118C254.918 170.082 242.848 182.388 227.984 182.472Z" fill="#121212"/>
</svg>
