<svg width="256" height="244" viewBox="0 0 256 244" fill="none" xmlns="http://www.w3.org/2000/svg">
<g clip-path="url(#clip0_6_940)">
<path d="M177.375 169.74C159.375 206.54 127.855 231.3 86.1545 239.44C79.7608 241.006 73.1971 241.772 66.6145 241.72C42.6145 241.72 20.6145 231.72 9.9345 215.34C-4.4055 193.52 -9.2855 147.26 37.9945 113.04C38.9545 118.26 40.9145 125.42 42.2145 129.66C32.9332 136.555 25.336 145.465 19.9945 155.72C11.1945 173 12.1745 190.26 22.5945 206.22C29.7945 216.98 41.1945 223.52 55.8545 225.52C74.1652 227.838 92.7411 224.339 108.954 215.52C134.374 202.16 151.315 186.2 162.395 164.38C159.261 161.142 157.407 156.879 157.174 152.38C157.007 147.552 158.762 142.854 162.054 139.318C165.346 135.783 169.907 133.697 174.735 133.52H175.415C180.11 133.496 184.636 135.279 188.054 138.499C191.472 141.719 193.522 146.13 193.779 150.819C194.036 155.507 192.48 160.116 189.434 163.69C186.388 167.264 182.085 169.53 177.415 170.02L177.375 169.74ZM234.715 129.34C259.135 157.02 259.795 189.6 250.355 208.5C241.555 225.76 218.355 243.04 187.155 243.04C172.59 242.743 158.262 239.297 145.155 232.94C149.735 229.68 156.235 224.46 159.815 221.2C169.922 225.579 180.8 227.904 191.815 228.04C212.015 228.04 227.315 218.6 236.435 201.34C242.295 189.94 242.635 176.58 237.095 162.9C230.297 145.688 218.2 131.084 202.555 121.2C182.028 107.363 157.829 99.9863 133.075 100.02H127.215C125.848 103.177 123.625 105.887 120.797 107.846C117.97 109.804 114.65 110.931 111.215 111.1H110.594C105.843 111.042 101.301 109.133 97.934 105.78C94.5668 102.427 92.6395 97.8929 92.5614 93.1415C92.4833 88.3901 94.2605 83.7954 97.5157 80.3334C100.771 76.8713 105.247 74.8145 109.994 74.6H110.655C113.963 74.6025 117.206 75.5166 120.029 77.2419C122.851 78.9672 125.144 81.437 126.655 84.38H131.875C173.475 84.38 209.995 100.34 234.715 129.34ZM69.2145 175.34C68.872 172.019 69.6766 168.68 71.4945 165.88C53.2545 134.28 43.4945 94.22 58.4745 52.52C69.2145 21.18 96.2545 0 125.575 0C156.855 0 189.435 27.38 193.335 80.14C188.455 78.52 181.335 76.14 177.055 75.26C175.995 58 161.414 15 126.874 15.64C114.494 15.98 96.2545 21.84 86.8745 33.88C75.2718 48.2524 68.522 65.932 67.5945 84.38C65.3959 109.676 71.3307 135.012 84.5345 156.7C85.2634 156.434 86.0404 156.325 86.8145 156.38H87.4545C92.292 156.292 96.9662 158.13 100.449 161.489C103.931 164.848 105.937 169.452 106.024 174.29C106.112 179.128 104.274 183.802 100.915 187.284C97.5567 190.767 92.9521 192.772 88.1145 192.86H87.4545C82.7351 192.843 78.2042 191.006 74.8062 187.731C71.4082 184.456 69.4051 179.996 69.2145 175.28V175.34Z" fill="#764ABC"/>
</g>
<defs>
<clipPath id="clip0_6_940">
<rect width="256" height="244" fill="white"/>
</clipPath>
</defs>
</svg>
