<svg width="256" height="256" viewBox="0 0 256 256" fill="none" xmlns="http://www.w3.org/2000/svg">
<path d="M45.3403 98.5H244.68V245.84H45.3403V98.5Z" fill="white"/>
<path d="M3 128V253H253V3H3V128ZM204.46 118C210.448 119.389 215.89 122.521 220.1 127C222.418 129.413 224.433 132.099 226.1 135C226.1 135.32 215.3 142.62 208.72 146.7C208.48 146.86 207.52 145.82 206.46 144.24C205.259 142.167 203.552 140.433 201.499 139.198C199.446 137.964 197.114 137.269 194.72 137.18C187.14 136.66 182.26 140.64 182.3 147.18C182.237 148.808 182.61 150.424 183.38 151.86C185.04 155.32 188.14 157.38 197.86 161.58C215.76 169.28 223.42 174.36 228.18 181.58C233.5 189.58 234.68 202.5 231.08 212.06C227.08 222.46 217.28 229.52 203.42 231.86C197.09 232.585 190.694 232.518 184.38 231.66C174.703 230.065 165.79 225.419 158.94 218.4C156.64 215.86 152.16 209.24 152.44 208.76C153.17 208.218 153.939 207.73 154.74 207.3L164 202.18L171.18 198.02L172.68 200.24C175.211 203.861 178.433 206.947 182.16 209.32C190.16 213.52 201.08 212.94 206.48 208.08C208.293 206.299 209.424 203.939 209.676 201.41C209.928 198.881 209.286 196.344 207.86 194.24C205.86 191.46 201.86 189.12 190.68 184.24C177.78 178.68 172.22 175.24 167.14 169.76C163.969 166.144 161.627 161.877 160.28 157.26C159.275 151.985 159.127 146.582 159.84 141.26C162.5 128.8 171.84 120.1 185.48 117.52C191.797 116.738 198.195 116.914 204.46 118.04V118ZM145.78 128.48V138.72H113.32V231.18H90.3V138.7H57.76V128.7C57.6586 125.251 57.7388 121.8 58 118.36C58.16 118.18 78 118.18 102 118.18H145.66L145.78 128.48Z" fill="#007ACC"/>
</svg>
