<svg width="203" height="256" viewBox="0 0 203 256" fill="none" xmlns="http://www.w3.org/2000/svg">
<g clip-path="url(#clip0_6_9)">
<mask id="mask0_6_9" style="mask-type:luminance" maskUnits="userSpaceOnUse" x="0" y="0" width="203" height="256">
<path d="M203 0H0V256H203V0Z" fill="white"/>
</mask>
<g mask="url(#mask0_6_9)">
<path d="M65.8901 218.046C54.3456 207.474 50.9756 185.262 55.7853 169.169C64.125 179.315 75.6805 182.529 87.6496 184.343C106.127 187.143 124.274 186.096 141.439 177.635C143.403 176.666 145.217 175.378 147.363 174.074C148.973 178.755 149.393 183.481 148.83 188.291C147.462 200.005 141.643 209.053 132.388 215.913C128.687 218.657 124.77 221.109 120.948 223.696C109.205 231.647 106.028 240.97 110.441 254.531C110.545 254.864 110.639 255.194 110.876 256C104.881 253.311 100.501 249.397 97.1643 244.25C93.6397 238.82 91.963 232.812 91.8746 226.311C91.8304 223.147 91.8304 219.956 91.4058 216.837C90.3688 209.233 86.8056 205.828 80.093 205.632C73.2039 205.431 67.7544 209.697 66.3093 216.417C66.1989 216.932 66.0389 217.441 65.8789 218.041L65.8901 218.046Z" fill="white"/>
<path d="M65.8901 218.046C54.3456 207.474 50.9756 185.262 55.7853 169.169C64.125 179.315 75.6805 182.529 87.6496 184.343C106.127 187.143 124.274 186.096 141.439 177.635C143.403 176.666 145.217 175.378 147.363 174.074C148.973 178.755 149.393 183.481 148.83 188.291C147.462 200.005 141.643 209.053 132.388 215.913C128.687 218.657 124.77 221.109 120.948 223.696C109.205 231.647 106.028 240.97 110.441 254.531C110.545 254.864 110.639 255.194 110.876 256C104.881 253.311 100.501 249.397 97.1643 244.25C93.6397 238.82 91.963 232.812 91.8746 226.311C91.8304 223.147 91.8304 219.956 91.4058 216.837C90.3688 209.233 86.8056 205.828 80.093 205.632C73.2039 205.431 67.7544 209.697 66.3093 216.417C66.1989 216.932 66.0389 217.441 65.8789 218.041L65.8901 218.046Z" fill="url(#paint0_linear_6_9)"/>
<path d="M0 166.488C0 166.488 34.185 149.805 68.4655 149.805L94.3117 69.6712C95.2794 65.7961 98.1046 63.1624 101.294 63.1624C104.484 63.1624 107.309 65.7961 108.277 69.6712L134.124 149.805C174.724 149.805 202.589 166.488 202.589 166.488C202.589 166.488 144.523 8.02053 144.409 7.70259C142.743 3.01745 139.929 0 136.136 0H66.4584C62.6654 0 59.9655 3.01745 58.1855 7.70259C58.0599 8.01455 0 166.488 0 166.488Z" fill="white"/>
</g>
</g>
<defs>
<linearGradient id="paint0_linear_6_9" x1="53.6643" y1="256" x2="165.208" y2="203.392" gradientUnits="userSpaceOnUse">
<stop stop-color="#D83333"/>
<stop offset="1" stop-color="#F041FF"/>
</linearGradient>
<clipPath id="clip0_6_9">
<rect width="203" height="256" fill="white"/>
</clipPath>
</defs>
</svg>
