<svg width="256" height="256" viewBox="0 0 256 256" fill="none" xmlns="http://www.w3.org/2000/svg">
<path d="M253.34 196.88C244.22 199.2 238.58 196.98 233.52 189.38C222.16 172.36 209.62 156.12 197.52 139.58C195.96 137.44 194.34 135.34 192.32 132.68C178 152 163.7 170.4 150.28 189.54C145.48 196.38 140.44 199.36 131.48 196.94L185.32 124.68L135.2 59.4198C143.82 57.7398 149.78 58.5998 155.06 66.3198C166.72 83.3598 179.58 99.5798 192.4 116.74C205.3 99.6398 218 83.3998 230 66.5198C234.82 59.6798 240 57.0798 248.66 59.5998C242.1 68.2998 235.68 76.8598 229.22 85.3598C220.5 96.8198 211.94 108.42 202.9 119.64C199.68 123.64 200.2 126.24 203.08 130.02C219.8 152 236.32 174.2 253.34 196.88ZM2.6601 123.48C4.1001 116.26 5.0601 108.9 7.0601 101.82C19.0601 58.9598 68.2601 41.1398 102.06 67.6998C121.86 83.2798 126.78 105.24 125.8 130H14.2001C12.5201 174.42 44.5001 201.24 85.2601 187.56C99.5601 182.76 107.98 171.56 112.2 157.56C114.34 150.54 117.88 149.44 124.48 151.44C121.1 168.96 113.44 183.6 97.4401 192.76C73.4401 206.48 39.1801 202.04 21.1601 182.98C10.5201 171.78 6.0001 157.84 4.0001 142.78C3.7001 140.38 3.0801 138.02 2.6001 135.64C2.6401 131.586 2.6601 127.533 2.6601 123.48V123.48ZM14.4001 120.5H115.26C114.6 88.3798 94.6001 65.5598 67.2601 65.3598C37.2601 65.1198 15.7001 87.3998 14.4001 120.5V120.5Z" fill="white"/>
</svg>
