<svg width="263" height="256" viewBox="0 0 263 256" fill="none" xmlns="http://www.w3.org/2000/svg">
<path fill-rule="evenodd" clip-rule="evenodd" d="M130.74 0C58.544 0 0 58.5447 0 130.771C0 188.552 37.4611 237.568 89.4084 254.861C95.9401 256.074 98.3389 252.026 98.3389 248.571C98.3389 245.453 98.2176 235.151 98.1613 224.224C61.7893 232.136 54.1143 208.795 54.1143 208.795C48.1671 193.679 39.5979 189.661 39.5979 189.661C27.7338 181.545 40.4921 181.712 40.4921 181.712C53.6185 182.634 60.5336 195.189 60.5336 195.189C72.1944 215.176 91.1186 209.399 98.5793 206.061C99.7527 197.607 103.141 191.836 106.88 188.571C77.8406 185.268 47.3119 174.054 47.3119 123.945C47.3119 109.668 52.4214 98.0026 60.7848 88.8426C59.4251 85.551 54.9501 72.2503 62.0491 54.2376C62.0491 54.2376 73.0257 50.723 98.0099 67.6421C108.441 64.7424 119.627 63.2851 130.74 63.2354C141.847 63.2851 153.04 64.7382 163.491 67.6378C188.444 50.7185 199.409 54.2332 199.409 54.2332C206.524 72.2439 202.049 85.5465 200.692 88.8382C209.074 97.9984 214.147 109.664 214.147 123.941C214.147 174.168 183.562 185.226 154.449 188.465C159.141 192.523 163.319 200.483 163.319 212.681C163.319 230.179 163.168 244.261 163.168 248.569C163.168 252.049 165.523 256.127 172.148 254.842C224.065 237.531 261.484 188.531 261.484 130.771C261.48 58.5491 202.944 0 130.74 0Z" fill="white"/>
<path d="M49.518 187.758C49.2299 188.407 48.2081 188.601 47.2772 188.158C46.3246 187.733 45.7942 186.847 46.1015 186.195C46.383 185.524 47.4071 185.341 48.3532 185.789C49.3058 186.214 49.847 187.11 49.5157 187.759L49.518 187.758ZM54.8135 193.667C54.1922 194.244 52.9734 193.976 52.1462 193.059C51.2889 192.15 51.1286 190.932 51.763 190.344C52.4082 189.768 53.5903 190.042 54.4476 190.951C55.3006 191.873 55.4696 193.082 54.8158 193.668L54.8135 193.667ZM59.9706 201.197C59.1696 201.755 57.8576 201.234 57.0477 200.07C56.2467 198.905 56.2467 197.508 57.0694 196.952C57.877 196.393 59.1696 196.898 59.9923 198.049C60.7889 199.23 60.7889 200.628 59.9706 201.197ZM67.0306 208.474C66.3163 209.265 64.7877 209.053 63.6706 207.976C62.5296 206.922 62.2114 205.422 62.928 204.632C63.6554 203.84 65.1903 204.06 66.314 205.13C67.4549 206.182 67.7993 207.687 67.035 208.472L67.0306 208.474ZM76.7733 212.699C76.455 213.723 74.987 214.189 73.5039 213.751C72.0253 213.303 71.0575 212.106 71.3606 211.071C71.6638 210.038 73.1425 209.555 74.6341 210.021C76.1129 210.467 77.0806 211.657 76.7733 212.699ZM87.4747 213.481C87.5116 214.56 86.2559 215.451 84.7037 215.473C83.1382 215.51 81.8718 214.636 81.8566 213.575C81.8566 212.485 83.0863 211.604 84.6495 211.573C86.2017 211.544 87.477 212.411 87.477 213.479L87.4747 213.481ZM97.4295 211.788C97.6158 212.838 96.5353 213.919 94.9918 214.207C93.4762 214.487 92.0689 213.834 91.8741 212.793C91.6878 211.714 92.7877 210.633 94.3032 210.354C95.8491 210.088 97.2347 210.72 97.4295 211.788Z" fill="white"/>
</svg>
