<svg width="256" height="256" viewBox="0 0 256 256" fill="none" xmlns="http://www.w3.org/2000/svg">
<path d="M38.074 227.752L18.064 3.32178H237.936L217.904 227.718L127.866 252.678L38.074 227.752Z" fill="#E44D26"/>
<path d="M128 233.6L200.756 213.428L217.874 21.6721H128V233.6Z" fill="#F16529"/>
<path d="M128 104.91H91.576L89.06 76.722H128V49.198H58.978L59.638 56.582L66.402 132.436H128V104.91ZM128 176.396L127.878 176.43L97.224 168.15L95.266 146.2H67.632L71.488 189.418L127.874 205.07L128 205.036V176.396Z" fill="#EBEBEB"/>
<path d="M127.904 104.91V132.436H161.798L158.604 168.134L127.904 176.42V205.058L184.334 189.418L184.748 184.768L191.216 112.302L191.886 104.91H184.47H127.904ZM127.904 49.198V76.722H194.392L194.944 70.538L196.2 56.582L196.858 49.198H127.904Z" fill="white"/>
</svg>
