<svg width="256" height="256" viewBox="0 0 256 256" fill="none" xmlns="http://www.w3.org/2000/svg">
<path fill-rule="evenodd" clip-rule="evenodd" d="M176.076 85.624C179.286 94.91 181.598 104.39 182.358 114.216C183.302 126.406 182.87 138.51 180.3 150.5C180.23 150.83 180.082 151.14 179.972 151.46C179.166 151.462 178.344 151.362 177.556 151.484C170.898 152.53 164.246 153.614 157.594 154.692C150.718 155.806 143.832 156.876 136.968 158.066C134.536 158.486 131.526 157.984 130.544 161.348C130.516 161.44 130.236 161.456 130.074 161.508L130.406 141.406L130.068 92.902L133.272 92.352C138.512 91.494 143.752 90.624 148.996 89.79C155.254 88.796 161.518 87.83 167.78 86.86C170.542 86.43 173.308 86.036 176.076 85.624Z" fill="#439934"/>
<path fill-rule="evenodd" clip-rule="evenodd" d="M123.458 220.108C120.078 217.202 116.58 214.424 113.34 211.368C95.906 194.924 83.154 175.57 76.874 152.236C75.144 145.814 73.99 139.288 73.62 132.652C73.36 128.008 72.984 123.322 73.312 118.702C74.186 106.414 75.962 94.2438 79.566 82.4078L79.764 82.1318C80.114 82.5978 80.618 83.0098 80.796 83.5358C84.314 93.8958 87.806 104.264 91.28 114.638C102.196 147.238 113.098 179.846 124.032 212.438C124.246 213.074 124.8 213.596 125.198 214.17L123.458 220.108Z" fill="#45A538"/>
<path fill-rule="evenodd" clip-rule="evenodd" d="M176.076 85.6239C173.308 86.0359 170.54 86.4299 167.778 86.8559C161.516 87.8259 155.252 88.7919 148.994 89.7859C143.75 90.6199 138.51 91.4899 133.27 92.3479L130.066 92.8979L130.042 90.8079C129.936 89.0899 129.754 87.3739 129.734 85.6559C129.596 74.6999 129.51 63.7439 129.374 52.7879C129.29 45.9299 129.164 39.0739 129.024 32.2179C128.938 27.9579 128.846 23.6959 128.654 19.4419C128.55 17.1559 128.182 14.8819 128.032 12.5959C127.948 11.2819 128.064 9.95794 128.09 8.63794C129.724 11.8039 131.322 14.9939 133.002 18.1359C135.656 23.1039 139.884 26.7639 143.69 30.7579C158.736 46.5419 169.418 64.8939 176.076 85.6239Z" fill="#46A037"/>
<path fill-rule="evenodd" clip-rule="evenodd" d="M130.072 161.506C130.234 161.454 130.516 161.438 130.542 161.346C131.524 157.982 134.534 158.484 136.966 158.064C143.83 156.876 150.716 155.804 157.592 154.69C164.244 153.612 170.896 152.528 177.554 151.482C178.342 151.358 179.164 151.46 179.97 151.458C178.726 155.898 177.746 160.434 176.168 164.752C174.376 169.65 172.208 174.43 169.906 179.116C166.46 186.105 162.194 192.66 157.2 198.642C153.362 203.258 149.084 207.524 144.796 211.738C142.426 214.068 139.632 215.966 137.032 218.06L136.358 217.6L133.93 215.524L131.418 210.018C129.702 203.595 128.766 196.989 128.63 190.342L128.676 189.22L129.018 184.368C129.132 182.712 129.284 181.058 129.354 179.398C129.612 173.434 129.836 167.47 130.072 161.506Z" fill="#409433"/>
<path fill-rule="evenodd" clip-rule="evenodd" d="M130.072 161.506C129.836 167.47 129.612 173.434 129.358 179.4C129.288 181.06 129.136 182.714 129.022 184.37L127.492 184.948C124.094 174.944 120.694 165.046 117.368 155.122C111.868 138.704 106.434 122.26 100.942 105.838C96.5063 92.5829 92.0396 79.3382 87.5421 66.104C87.3321 65.484 86.7281 65 86.3081 64.452L96.1001 46.448C96.4361 47.032 96.8801 47.578 97.0921 48.206C101.627 61.6102 106.139 75.0222 110.628 88.442C116.46 105.902 122.256 123.376 128.084 140.838C128.316 141.536 128.7 142.18 129.066 142.962L130.406 141.402L130.072 161.506Z" fill="#4FAA41"/>
<path fill-rule="evenodd" clip-rule="evenodd" d="M86.3101 64.4541C86.7301 65.0021 87.3321 65.4861 87.5441 66.1061C92.0416 79.3403 96.5083 92.585 100.944 105.84C106.436 122.262 111.87 138.706 117.37 155.124C120.694 165.046 124.094 174.946 127.494 184.95L129.024 184.372L128.682 189.224L128.372 190.342C127.84 195.654 127.392 200.978 126.744 206.278C126.418 208.934 125.726 211.542 125.2 214.172C124.804 213.598 124.248 213.076 124.034 212.44C113.1 179.846 102.198 147.24 91.2821 114.64C87.8093 104.265 84.3146 93.898 80.7981 83.5381C80.6201 83.0121 80.1181 82.6001 79.7661 82.1341L86.3101 64.4541Z" fill="#4AA73C"/>
<path fill-rule="evenodd" clip-rule="evenodd" d="M130.404 141.404L129.064 142.964C128.698 142.182 128.314 141.536 128.082 140.84C122.256 123.378 116.458 105.904 110.626 88.444C106.137 75.0243 101.625 61.6122 97.0901 48.208C96.8801 47.58 96.4361 47.032 96.0981 46.45L108.208 30.52C108.59 31.03 109.134 31.484 109.332 32.058C112.694 41.9 116.026 51.754 119.338 61.614C122.432 70.822 125.48 80.044 128.61 89.24C128.82 89.856 129.55 90.292 130.038 90.812L130.062 92.902C130.178 109.066 130.292 125.236 130.404 141.404Z" fill="#57AE47"/>
<path fill-rule="evenodd" clip-rule="evenodd" d="M130.042 90.8081C129.554 90.2881 128.824 89.8521 128.614 89.2361C125.484 80.0401 122.436 70.8181 119.342 61.6101C116.03 51.7501 112.698 41.8981 109.336 32.0541C109.138 31.4801 108.594 31.0261 108.212 30.5161C112.15 26.6601 115.966 22.6661 120.062 18.9881C123.704 15.7201 126.632 12.2161 126.766 7.05217C126.772 6.83817 126.884 6.62417 127.056 6.02417L128.094 8.63617C128.068 9.95817 127.95 11.2801 128.036 12.5941C128.186 14.8801 128.554 17.1541 128.658 19.4401C128.85 23.6941 128.942 27.9561 129.028 32.2161C129.166 39.0721 129.292 45.9281 129.378 52.7861C129.512 63.7421 129.6 74.6981 129.738 85.6541C129.754 87.3761 129.934 89.0901 130.042 90.8081Z" fill="#60B24F"/>
<path fill-rule="evenodd" clip-rule="evenodd" d="M125.196 214.17C125.722 211.54 126.414 208.93 126.74 206.276C127.39 200.978 127.836 195.652 128.368 190.34L128.5 190.32L128.632 190.342C128.768 196.989 129.704 203.595 131.42 210.018C131.068 210.482 130.57 210.896 130.384 211.42C128.93 215.52 127.56 219.652 126.098 223.752C125.898 224.312 125.342 224.748 124.95 225.24L123.456 220.108L125.196 214.17Z" fill="#A9AA88"/>
<path fill-rule="evenodd" clip-rule="evenodd" d="M124.952 225.242C125.344 224.75 125.902 224.314 126.1 223.754C127.562 219.654 128.934 215.524 130.386 211.422C130.572 210.898 131.068 210.484 131.422 210.02L133.932 215.528C133.436 216.232 132.752 216.866 132.476 217.65L127.668 231.768C127.47 232.334 126.794 232.734 126.342 233.212L124.952 225.242Z" fill="#B6B598"/>
<path fill-rule="evenodd" clip-rule="evenodd" d="M126.342 233.21C126.796 232.734 127.47 232.332 127.668 231.766L132.476 217.648C132.75 216.866 133.436 216.23 133.932 215.526L136.362 217.6C135.188 218.76 134.536 220.1 134.928 221.794L134.19 224.21C133.854 224.624 133.368 224.984 133.202 225.458C131.524 230.264 129.922 235.096 128.232 239.902C128.018 240.512 127.424 240.99 127.004 241.526C126.786 238.752 126.564 235.984 126.342 233.21Z" fill="#C2C1A7"/>
<path fill-rule="evenodd" clip-rule="evenodd" d="M127.006 241.526C127.424 240.988 128.018 240.51 128.234 239.902C129.924 235.098 131.526 230.266 133.204 225.458C133.37 224.986 133.854 224.624 134.192 224.21L133.174 235.3C132.902 235.614 132.508 235.888 132.378 236.254C131.228 239.482 130.144 242.734 128.99 245.962C128.752 246.628 128.296 247.216 127.94 247.838C127.624 247.424 127.058 247.024 127.032 246.592C126.93 244.91 127 243.216 127.006 241.526Z" fill="#CECDB7"/>
<path fill-rule="evenodd" clip-rule="evenodd" d="M127.938 247.838C128.294 247.214 128.75 246.626 128.988 245.962C130.144 242.736 131.226 239.484 132.376 236.254C132.506 235.888 132.902 235.616 133.172 235.3L133.196 242.58L130.76 248.828L127.938 247.838Z" fill="#DBDAC7"/>
<path fill-rule="evenodd" clip-rule="evenodd" d="M130.76 248.83L133.196 242.582L133.698 249.974L130.76 248.83Z" fill="#EBE9DC"/>
<path fill-rule="evenodd" clip-rule="evenodd" d="M134.928 221.796C134.536 220.102 135.186 218.76 136.362 217.602L137.036 218.062L134.928 221.796Z" fill="#CECDB7"/>
<path fill-rule="evenodd" clip-rule="evenodd" d="M128.632 190.344L128.5 190.322L128.368 190.342L128.678 189.224L128.632 190.344Z" fill="#4FAA41"/>
</svg>
