<svg width="256" height="256" viewBox="0 0 256 256" fill="none" xmlns="http://www.w3.org/2000/svg">
<g clip-path="url(#clip0_6_105)">
<path d="M119.616 0.0675101C119.066 0.117423 117.313 0.292756 115.736 0.416898C79.3766 3.69451 45.3184 23.3115 23.7466 53.4614C11.7363 70.2257 4.05248 89.2413 1.15072 109.384C0.12544 116.416 0 118.493 0 128.025C0 137.558 0.12544 139.635 1.152 146.665C8.10752 194.73 42.3168 235.115 88.7117 250.077C97.0202 252.754 105.778 254.581 115.738 255.681C119.617 256.106 136.383 256.106 140.262 255.681C157.454 253.78 172.018 249.527 186.382 242.195C188.584 241.07 189.01 240.769 188.709 240.519C188.509 240.368 179.124 227.783 167.864 212.571L147.395 184.923L121.743 146.966C107.63 126.099 96.0192 109.034 95.9181 109.034C95.8182 109.009 95.7184 125.873 95.6685 146.466C95.593 182.521 95.5686 183.972 95.1181 184.822C94.4678 186.048 93.9674 186.548 92.9152 187.1C92.1152 187.499 91.4138 187.575 87.6352 187.575H83.3062L82.1542 186.849C81.441 186.402 80.8617 185.771 80.4774 185.023L79.9526 183.896L80.0038 133.73L80.0781 83.5384L80.8538 82.5619C81.2544 82.0372 82.1056 81.3614 82.7059 81.0363C83.7312 80.5359 84.1318 80.486 88.4608 80.486C93.5667 80.486 94.4166 80.6857 95.744 82.137C96.119 82.5376 110.007 103.455 126.624 128.651C143.447 154.153 160.279 179.65 177.123 205.139L197.393 235.84L198.419 235.165C207.502 229.26 217.112 220.852 224.719 212.095C240.91 193.504 251.346 170.836 254.849 146.665C255.875 139.635 256 137.558 256 128.025C256 118.491 255.875 116.416 254.849 109.384C247.892 61.3195 213.683 20.9362 167.288 5.97386C159.105 3.3208 150.397 1.4945 140.637 0.393862C138.235 0.143018 121.693 -0.130862 119.617 0.0687892M172.018 77.4836C173.219 78.0838 174.195 79.2344 174.546 80.4348C174.746 81.0863 174.796 94.9979 174.746 126.348L174.67 171.336L166.738 159.176L158.78 147.016V114.314C158.78 93.1716 158.88 81.2859 159.03 80.71C159.43 79.3099 160.306 78.2092 161.508 77.5578C162.533 77.0331 162.909 76.9819 166.838 76.9819C170.542 76.9819 171.192 77.0331 172.018 77.4836Z" fill="white"/>
</g>
<defs>
<clipPath id="clip0_6_105">
<rect width="256" height="256" fill="white"/>
</clipPath>
</defs>
</svg>
