<svg width="256" height="256" viewBox="0 0 256 256" fill="none" xmlns="http://www.w3.org/2000/svg">
<path d="M130.216 0C63.6219 4.92785e-06 67.7804 29.9521 67.7804 29.9521L67.8547 60.9821H131.403V70.2988H42.6133C42.6133 70.2988 0 65.2865 0 134.977C-4.75131e-06 204.667 37.1939 202.196 37.1939 202.196H59.3914V169.857C59.3914 169.857 58.1949 131.281 95.9914 131.281C133.788 131.281 159.02 131.281 159.02 131.281C159.02 131.281 194.433 131.875 194.433 95.7851C194.433 59.6954 194.433 36.1119 194.433 36.1119C194.433 36.1119 199.809 0 130.216 0ZM95.1747 20.8664C101.497 20.8664 106.608 26.1664 106.608 32.724C106.608 39.2816 101.497 44.5816 95.1747 44.5816C88.8521 44.5816 83.7419 39.2816 83.7419 32.724C83.7419 26.1664 88.8521 20.8664 95.1747 20.8664Z" fill="url(#paint0_linear_30_6)"/>
<path d="M125.784 256C192.378 256 188.22 226.048 188.22 226.048L188.145 195.018H124.597V185.701H213.387C213.387 185.701 256 190.714 256 121.023C256 51.3329 218.806 53.8043 218.806 53.8043H196.609V86.1433C196.609 86.1433 197.805 124.719 160.009 124.719C122.212 124.719 96.9796 124.719 96.9796 124.719C96.9796 124.719 61.5675 124.125 61.5675 160.215C61.5675 196.305 61.5675 219.888 61.5675 219.888C61.5675 219.888 56.191 256 125.784 256ZM160.825 235.134C154.503 235.134 149.393 229.834 149.393 223.276C149.393 216.719 154.503 211.418 160.825 211.418C167.148 211.418 172.258 216.719 172.258 223.276C172.258 229.834 167.148 235.134 160.825 235.134Z" fill="url(#paint1_linear_30_6)"/>
<defs>
<linearGradient id="paint0_linear_30_6" x1="25.2097" y1="23.6574" x2="159.667" y2="153.731" gradientUnits="userSpaceOnUse">
<stop stop-color="#387EB8"/>
<stop offset="1" stop-color="#366994"/>
</linearGradient>
<linearGradient id="paint1_linear_30_6" x1="98.6798" y1="94.8734" x2="242.845" y2="228.043" gradientUnits="userSpaceOnUse">
<stop stop-color="#FFE052"/>
<stop offset="1" stop-color="#FFC331"/>
</linearGradient>
</defs>
</svg>
