<svg width="256" height="256" viewBox="0 0 256 256" fill="none" xmlns="http://www.w3.org/2000/svg">
<g clip-path="url(#clip0_6_128)">
<mask id="mask0_6_128" style="mask-type:luminance" maskUnits="userSpaceOnUse" x="0" y="0" width="256" height="256">
<path d="M256 0H0V256H256V0Z" fill="white"/>
</mask>
<g mask="url(#mask0_6_128)">
<path d="M122.88 256C77.6372 256 40.9602 219.323 40.9602 174.08C40.9602 128.837 77.6372 92.1602 122.88 92.1602V256Z" fill="white"/>
<path d="M122.88 0H40.9602V81.92H122.88V0Z" fill="white"/>
<path d="M174.08 81.92C196.701 81.92 215.04 63.5817 215.04 40.96C215.04 18.3384 196.701 0 174.08 0C151.459 0 133.12 18.3384 133.12 40.96C133.12 63.5817 151.459 81.92 174.08 81.92Z" fill="white"/>
</g>
</g>
<defs>
<clipPath id="clip0_6_128">
<rect width="256" height="256" fill="white"/>
</clipPath>
</defs>
</svg>
