<svg width="256" height="256" viewBox="0 0 256 256" fill="none" xmlns="http://www.w3.org/2000/svg">
<g clip-path="url(#clip0_6_151)">
<mask id="mask0_6_151" style="mask-type:luminance" maskUnits="userSpaceOnUse" x="0" y="0" width="256" height="256">
<path d="M256 0H0V256H256V0Z" fill="white"/>
</mask>
<g mask="url(#mask0_6_151)">
<mask id="mask1_6_151" style="mask-type:luminance" maskUnits="userSpaceOnUse" x="-45" y="-45" width="357" height="357">
<path d="M311.735 -44.5813H-44.6167V311.771H311.735V-44.5813Z" fill="white"/>
</mask>
<g mask="url(#mask1_6_151)">
<path d="M244.919 133.593L133.559 244.953" stroke="white" stroke-width="43.5" stroke-linecap="round" stroke-linejoin="round"/>
</g>
<mask id="mask2_6_151" style="mask-type:luminance" maskUnits="userSpaceOnUse" x="-45" y="-45" width="357" height="357">
<path d="M311.735 -44.6169H-44.6167V311.735H311.735V-44.6169Z" fill="white"/>
</mask>
<g mask="url(#mask2_6_151)">
<path d="M222.647 11.0618L11.0635 222.646" stroke="white" stroke-width="43.5" stroke-linecap="round" stroke-linejoin="round"/>
</g>
<mask id="mask3_6_151" style="mask-type:luminance" maskUnits="userSpaceOnUse" x="-45" y="-45" width="357" height="357">
<path d="M311.735 -44.5813H-44.6167V311.771H311.735V-44.5813Z" fill="white"/>
</mask>
<g mask="url(#mask3_6_151)">
<path d="M244.919 133.593L133.559 244.953" stroke="white" stroke-width="43.5" stroke-linecap="round" stroke-linejoin="round"/>
</g>
<mask id="mask4_6_151" style="mask-type:luminance" maskUnits="userSpaceOnUse" x="-45" y="-45" width="357" height="357">
<path d="M311.735 -44.6169H-44.6167V311.735H311.735V-44.6169Z" fill="white"/>
</mask>
<g mask="url(#mask4_6_151)">
<path d="M222.647 11.0618L11.0635 222.646" stroke="white" stroke-width="43.5" stroke-linecap="round" stroke-linejoin="round"/>
</g>
</g>
</g>
<defs>
<clipPath id="clip0_6_151">
<rect width="256" height="256" fill="white"/>
</clipPath>
</defs>
</svg>
