<svg width="256" height="256" viewBox="0 0 256 256" fill="none" xmlns="http://www.w3.org/2000/svg">
<path d="M45.3403 94H244.68V241.34H45.3403V94Z" fill="white"/>
<path d="M3 127.82V252.82H253V2.82007H3V127.82ZM204.46 117.82C210.448 119.209 215.89 122.341 220.1 126.82C222.418 129.233 224.433 131.919 226.1 134.82C226.1 135.14 215.3 142.44 208.72 146.52C208.48 146.68 207.52 145.64 206.46 144.06C205.259 141.987 203.552 140.253 201.499 139.018C199.446 137.784 197.114 137.089 194.72 137C187.14 136.48 182.26 140.46 182.3 147C182.237 148.628 182.61 150.244 183.38 151.68C185.04 155.14 188.14 157.2 197.86 161.4C215.76 169.1 223.42 174.18 228.18 181.4C233.5 189.4 234.68 202.32 231.08 211.88C227.08 222.28 217.28 229.34 203.42 231.68C197.09 232.405 190.694 232.338 184.38 231.48C174.703 229.885 165.79 225.239 158.94 218.22C156.64 215.68 152.16 209.06 152.44 208.58C153.17 208.038 153.939 207.55 154.74 207.12L164 202L171.18 197.84L172.68 200.06C175.211 203.681 178.433 206.767 182.16 209.14C190.16 213.34 201.08 212.76 206.48 207.9C208.293 206.119 209.424 203.759 209.676 201.23C209.928 198.701 209.286 196.164 207.86 194.06C205.86 191.28 201.86 188.94 190.68 184.06C177.78 178.5 172.22 175.06 167.14 169.58C163.969 165.964 161.627 161.697 160.28 157.08C159.275 151.805 159.127 146.402 159.84 141.08C162.5 128.62 171.84 119.92 185.48 117.34C191.797 116.558 198.195 116.734 204.46 117.86V117.82ZM145.78 128.3V138.54H113.32V231H90.3V138.52H57.76V128.52C57.6586 125.071 57.7388 121.62 58 118.18C58.16 118 78 118 102 118H145.66L145.78 128.3Z" fill="#007ACC"/>
</svg>
