<svg width="256" height="256" viewBox="0 0 256 256" fill="none" xmlns="http://www.w3.org/2000/svg">
<path d="M7.31182 90.0862C7.31182 90.0862 1.25782 85.7042 8.53182 79.8602L25.4678 64.6722C25.4678 64.6722 30.3198 59.5542 35.4458 64.0162L191.796 182.672V239.572C191.796 239.572 191.718 248.508 180.282 247.524L7.31182 90.0862Z" fill="#2489CA"/>
<path d="M47.6177 126.758L7.31168 163.484C7.31168 163.484 3.17168 166.57 7.31168 172.094L26.0237 189.148C26.0237 189.148 30.4677 193.938 37.0397 188.492L79.7577 156.016L47.6177 126.758Z" fill="#1070B3"/>
<path d="M118.368 127.062L192.274 70.4919L191.796 13.8979C191.796 13.8979 188.64 1.54587 178.11 7.97987L79.7578 97.7019L118.368 127.062Z" fill="#0877B9"/>
<path d="M180.28 247.594C184.57 252 189.774 250.554 189.774 250.554L247.368 222.11C254.742 217.07 253.71 210.82 253.71 210.82V40.9299C253.71 33.4599 246.086 30.8819 246.086 30.8819L196.164 6.75987C185.258 0.00187302 178.11 7.97987 178.11 7.97987C178.11 7.97987 187.296 1.34587 191.796 13.8999V238.534C191.796 240.08 191.468 241.594 190.812 242.962C189.5 245.626 186.64 248.102 179.804 247.064L180.28 247.594Z" fill="#3C99D4"/>
</svg>
